<svg width="67" height="67" viewBox="0 0 67 67" fill="none" xmlns="http://www.w3.org/2000/svg">
<path d="M11.0018 27.3925C3.86889 31.5106 1 35.9348 1 39.4303C1 40.6938 1.5149 41.9573 2.54457 43.2259C4.6039 45.7633 4.6039 48.2798 2.54457 50.8173C0.485231 53.3547 0.485231 55.8712 2.54457 58.4087C4.6039 60.9461 4.6039 63.4626 2.54457 66.0001H7.54551L10.7132 63.8263L9.69404 39.4304L12.3097 32.624L11.0018 27.3925Z" fill="#B2CAEC"/>
<path d="M12.5465 66C14.6058 63.4626 14.6058 60.9461 12.5465 58.4086C10.4872 55.8712 10.4872 53.3547 12.5465 50.8172C14.6058 48.2798 14.6058 45.7633 12.5465 43.2258C11.5168 41.957 11.0019 40.6935 11.0019 39.4301L12.3098 32.6237H11.0019C8.05417 34.3256 6.00098 36.9458 6.00098 39.4301C6.00098 40.6937 6.51588 41.9572 7.54554 43.2258C9.60488 45.7631 9.60488 48.2797 7.54554 50.8172C5.48621 53.3545 5.48621 55.8711 7.54554 58.4086C9.60488 60.9459 9.60488 63.4625 7.54554 66H12.5465Z" fill="#82AEE3"/>
<path d="M14.7451 17.8834L11.002 16.8804V32.6238L18.5076 31.9247V25.1182L14.7451 17.8834Z" fill="#FFE177"/>
<path d="M11.002 32.6238V39.4303L18.5076 31.9247V25.1182L11.002 32.6238Z" fill="#FFD15B"/>
<path d="M64.5985 18.438L59.0038 4.70431C37.5579 -0.824218 20.2763 -2.75892 14.7451 17.8834L17.0692 26.5566C29.2541 41.3095 48.2438 33.9157 64.5985 18.438Z" fill="#FFF0AD"/>
<path d="M62.5084 5.62697C61.3287 5.31086 60.1602 5.00247 59.0035 4.70428L61.2409 13.054C61.7058 14.7891 61.1411 16.6359 59.7908 17.8207C44.1425 31.552 28.3515 34.0173 17.0688 26.5566L18.5072 31.9246C34.4334 47.8508 49.124 35.533 65.9998 18.6572L62.5084 5.62697Z" fill="#FFE177"/>
<path d="M30.6967 12.9768C25.1941 12.9768 20.7334 17.0569 20.7334 22.0899C20.7334 27.1229 25.1942 31.2028 30.6968 31.2028H59.5567C60.3738 29.0842 61.2315 25.2771 61.2315 22.9027C61.2315 18.8541 59.2508 13.8932 55.0952 10.604C52.043 8.80306 48.4078 7.75757 44.5056 7.75757C39.1156 7.75744 34.2348 9.75138 30.6967 12.9768Z" fill="#82AEE3"/>
<path d="M62.9572 31.6024C63.6755 29.74 64.0669 27.7364 64.0669 25.6492C64.0669 19.337 60.4928 13.7889 55.0951 10.604C57.3231 13.7741 58.6157 17.5463 58.6157 21.5949C58.6157 23.9693 58.1704 26.2485 57.3532 28.3671C57.3532 28.3671 50.0464 28.3671 47.2899 28.3671C42.7174 28.3671 38.8694 26.7863 38.2487 23.1162C38.1455 22.5059 37.639 22.0424 37.0207 22.0156C32.7435 21.8295 30.3347 20.5863 29.0327 18.9821L30.6966 31.2029L45.179 47.8291H56.9496C57.161 47.851 57.3755 47.8621 57.5928 47.8621C59.2166 47.8621 60.6881 47.2372 61.7646 46.2248L59.5215 42.3396C61.7896 42.6231 64.076 41.6068 65.2535 39.5669C66.8413 36.8172 65.8133 33.2515 62.9572 31.6024Z" fill="#6C7FD8"/>
<path d="M45.6073 64.0388C45.9774 63.3978 46.511 62.4736 46.687 62.1687C48.4033 59.1961 51.6548 55.8939 55.4293 54.8886C56.1505 54.6965 56.56 53.9337 56.3284 53.2242C55.692 51.2753 51.1774 44.704 51.1774 44.704L40.3531 54.9684C41.0118 57.7566 41.848 59.7513 41.848 59.7513L39.7505 63.3842L44.475 64.6921C44.9422 64.6921 45.3736 64.4434 45.6073 64.0388Z" fill="#B2CAEC"/>
<path d="M56.9498 47.8291C53.9543 47.5202 51.6215 45.0789 51.6215 42.1129H46.3901L39.5727 48.8618C39.5727 51.0129 39.9254 53.1579 40.3531 54.9685C42.5414 54.126 44.918 52.6865 47.1227 50.4818C47.6893 49.9153 48.2842 49.214 48.8669 48.466C50.1614 46.8043 52.81 47.4038 53.2382 49.4663C53.5231 50.8385 53.8581 51.9927 54.127 52.8161C54.3587 53.5256 53.9493 54.2883 53.228 54.4804C49.4535 55.4858 47.0953 57.8884 45.3791 60.861C45.2031 61.1659 44.6695 62.0901 44.2994 62.7311C44.0658 63.1358 43.6343 63.3844 43.167 63.3844H39.7504L38.2402 66.0001H46.5379C46.5379 66.0001 47.7157 63.9601 47.9948 63.4767C50.2739 59.5293 53.6849 56.587 60.0414 56.587C60.0414 56.587 57.6241 52.7432 56.9498 47.8291Z" fill="#82AEE3"/>
<path d="M54.5227 31.6334H49.8894C49.8894 34.9675 48.6912 39.2159 44.638 41.5121V31.4398C40.9116 30.8542 38.1614 28.9311 38.1614 25.3093C33.1644 25.3093 29.0329 23.4213 29.0329 18.9819C28.4539 21.1425 24.2603 36.7935 23.5382 39.4882C23.1428 40.9664 24.0791 42.1337 25.6519 42.1337C26.7386 42.1337 27.7189 42.1337 27.7189 42.1337L26.9894 44.2586C26.9894 44.2586 27.8184 45.3027 29.6383 45.3027C28.2466 47.902 30.9581 48.9575 30.9581 48.9575C29.0958 50.8199 30.2582 53.8333 33.2351 53.8333C36.212 53.8333 40.701 52.3259 44.6378 48.3889C47.1809 45.8458 49.0132 42.6932 49.0132 42.6932C51.0826 44.5018 55.9112 41.397 55.9112 35.47C55.9112 33.1451 54.5227 31.6334 54.5227 31.6334Z" fill="#B2CAEC"/>
<path d="M47.6055 22.9133C47.5641 23.1747 46.0126 24.7953 46.2546 25.2704C46.4967 25.7456 48.7198 25.4429 48.9556 25.563C49.1914 25.6832 50.2532 27.6596 50.7799 27.5762C51.3066 27.4927 51.7057 25.2849 51.8929 25.0978C52.08 24.9106 54.2878 24.5115 54.3713 23.9848C54.4547 23.4581 52.4783 22.3963 52.3581 22.1605C52.2379 21.9247 52.5405 19.7016 52.0655 19.4595C51.5904 19.2174 49.9698 20.7689 49.7084 20.8104C49.447 20.8519 47.4262 19.877 47.0492 20.254C46.6721 20.6311 47.6468 22.6519 47.6055 22.9133Z" fill="#FFF0AD"/>
<path d="M27.9159 20.3402C27.7018 20.4958 25.4587 20.5446 25.2939 21.0518C25.1291 21.5588 26.9151 22.9169 26.9969 23.1685C27.0786 23.4203 26.432 25.5685 26.8634 25.882C27.2947 26.1954 29.1381 24.9166 29.4028 24.9166C29.6675 24.9166 31.5109 26.1955 31.9422 25.882C32.3736 25.5687 31.727 23.4203 31.8087 23.1685C31.8905 22.9167 33.6765 21.5588 33.5117 21.0518C33.3469 20.5447 31.1038 20.4958 30.8897 20.3402C30.6756 20.1845 29.936 18.0665 29.4028 18.0665C28.8697 18.0663 28.1301 20.1845 27.9159 20.3402Z" fill="#FFF0AD"/>
<path d="M47.6055 22.9134C47.564 23.1748 46.0126 24.7953 46.2546 25.2705C46.4967 25.7456 48.7198 25.443 48.9556 25.5631C49.1914 25.6832 50.2532 27.6597 50.7799 27.5762C51.3066 27.4928 51.7057 25.285 51.8929 25.0978C52.08 24.9107 54.2878 24.5115 54.3713 23.9849C54.4547 23.4582 52.4783 22.3964 52.3581 22.1606C52.2379 21.9247 52.5405 19.7017 52.0655 19.4596C51.5904 19.2175 49.9698 20.769 49.7084 20.8105C49.447 20.8519 47.4262 19.8771 47.0491 20.2541C46.6721 20.6312 47.647 22.6519 47.6055 22.9134Z" stroke="black" stroke-width="2" stroke-miterlimit="10" stroke-linecap="round" stroke-linejoin="round"/>
<path d="M27.9159 20.34C27.7018 20.4956 25.4587 20.5444 25.2939 21.0516C25.1291 21.5586 26.9151 22.9167 26.9969 23.1683C27.0786 23.4201 26.432 25.5684 26.8634 25.8818C27.2947 26.1952 29.1381 24.9164 29.4028 24.9164C29.6675 24.9164 31.5109 26.1953 31.9422 25.8818C32.3736 25.5685 31.727 23.4201 31.8087 23.1683C31.8905 22.9166 33.6765 21.5586 33.5117 21.0516C33.3469 20.5445 31.1039 20.4956 30.8897 20.34C30.6756 20.1843 29.936 18.0663 29.4028 18.0663C28.8696 18.0663 28.13 20.1845 27.9159 20.34Z" stroke="black" stroke-width="2" stroke-miterlimit="10" stroke-linecap="round" stroke-linejoin="round"/>
<path d="M32.1367 24.0483C33.7507 24.9104 35.8646 25.3092 38.1613 25.3092C38.1613 29.4604 41.7738 31.3806 46.3286 31.6125" stroke="black" stroke-width="2" stroke-miterlimit="10" stroke-linecap="round" stroke-linejoin="round"/>
<path d="M32.7726 44.5989C32.1473 44.9598 30.8912 45.3029 29.6383 45.3029C27.8184 45.3029 26.9894 44.2587 26.9894 44.2587L27.7189 42.1338C27.7189 42.1338 26.7387 42.1338 25.652 42.1338C24.0792 42.1338 23.1428 40.9666 23.5383 39.4883C24.2603 36.7936 26.7854 27.3699 27.1678 25.9427" stroke="black" stroke-width="2" stroke-miterlimit="10" stroke-linecap="round" stroke-linejoin="round"/>
<path d="M35.8972 33.2374C34.7629 34.3717 32.9238 34.3717 31.7896 33.2374" stroke="black" stroke-width="2" stroke-miterlimit="10" stroke-linecap="round" stroke-linejoin="round"/>
<path d="M34.0662 29.0643C32.9319 29.4689 31.0928 29.4689 29.9585 29.0643" stroke="black" stroke-width="2" stroke-miterlimit="10" stroke-linecap="round" stroke-linejoin="round"/>
<path d="M29.638 45.3029C28.2463 47.9021 30.9579 48.9576 30.9579 48.9576C29.0955 50.82 30.2579 53.8334 33.2348 53.8334C36.2118 53.8334 40.7007 52.326 44.6376 48.389" stroke="black" stroke-width="2" stroke-miterlimit="10" stroke-linecap="round" stroke-linejoin="round"/>
<path d="M39.8302 52.2398C40.4258 56.3599 41.8479 59.7513 41.8479 59.7513L38.2402 65.9999H46.5379C46.5379 65.9999 47.7157 63.96 47.9948 63.4766C50.2739 59.5291 53.6849 56.5868 60.0414 56.5868C60.0414 56.5868 58.8233 54.6499 57.8752 51.7679" stroke="black" stroke-width="2" stroke-miterlimit="10" stroke-linecap="round" stroke-linejoin="round"/>
<path d="M52.3267 25.4649L62.957 31.6024" stroke="black" stroke-width="2" stroke-miterlimit="10" stroke-linecap="round" stroke-linejoin="round"/>
<path d="M30.6963 12.9768L43.2107 20.2019" stroke="black" stroke-width="2" stroke-miterlimit="10" stroke-linecap="round" stroke-linejoin="round"/>
<path d="M51.7293 43.2069C52.26 45.8588 54.6834 47.8619 57.5927 47.8619C59.2166 47.8619 60.688 47.237 61.7645 46.2246L59.5214 42.3394C61.7895 42.623 64.0759 41.6066 65.2535 39.5668C66.8411 36.817 65.8131 33.2513 62.9569 31.6023C63.6751 29.7399 64.0666 27.7364 64.0666 25.6491C64.0666 15.7678 55.3086 7.75732 44.5051 7.75732C39.1151 7.75732 34.2343 9.75127 30.6962 12.9765C25.1936 12.9765 20.7329 17.0566 20.7329 22.0896C20.7329 25.5076 22.7903 28.486 25.834 30.0457" stroke="black" stroke-width="2" stroke-miterlimit="10" stroke-linecap="round" stroke-linejoin="round"/>
<path d="M44.6377 31.5411V41.5121C48.6911 39.2159 49.8891 34.9675 49.8891 31.6334H54.5224C54.5224 31.6334 55.9109 33.1453 55.9109 35.4704C55.9109 41.3974 51.0825 44.5022 49.013 42.6936" stroke="black" stroke-width="2" stroke-miterlimit="10" stroke-linecap="round" stroke-linejoin="round"/>
<path d="M24.1487 3.92065C19.8571 6.46677 16.6236 10.8732 14.7451 17.8832L18.5075 31.9245" stroke="black" stroke-width="2" stroke-miterlimit="10" stroke-linecap="round" stroke-linejoin="round"/>
<path d="M63.6069 21.0315C64.3999 20.252 65.1976 19.4597 66.0002 18.6572L62.5088 5.62699C48.8861 1.97679 36.7201 -0.676443 27.8433 2.253" stroke="black" stroke-width="2" stroke-miterlimit="10" stroke-linecap="round" stroke-linejoin="round"/>
<path d="M18.5073 31.9246C20.4034 33.8207 22.282 35.3165 24.1489 36.4519" stroke="black" stroke-width="2" stroke-miterlimit="10" stroke-linecap="round" stroke-linejoin="round"/>
<path d="M14.7451 17.8834L18.5076 31.9247L11.002 39.4303V16.8804L14.7451 17.8834Z" stroke="black" stroke-width="2" stroke-miterlimit="10" stroke-linecap="round" stroke-linejoin="round"/>
<path d="M7.54554 66C9.60488 63.4626 9.60488 60.9461 7.54554 58.4086C5.48621 55.8712 5.48621 53.3547 7.54554 50.8172C9.60488 48.2798 9.60488 45.7633 7.54554 43.2258C6.51588 41.957 6.00098 40.6935 6.00098 39.4301C6.00098 36.9458 8.05403 34.3256 11.0019 32.6237" stroke="black" stroke-width="2" stroke-miterlimit="10" stroke-linecap="round" stroke-linejoin="round"/>
<path d="M3.93821 48.2063C4.36051 46.5473 3.89597 44.8912 2.54457 43.2259C1.5149 41.9572 1 40.6937 1 39.4303C1 35.9348 3.86889 31.5106 11.0018 27.3925" stroke="black" stroke-width="2" stroke-miterlimit="10" stroke-linecap="round" stroke-linejoin="round"/>
<path d="M2.54452 65.9999C4.60386 63.4626 4.60386 60.946 2.54452 58.4085C0.742571 56.1883 0.517359 53.9841 1.86876 51.7678" stroke="black" stroke-width="2" stroke-miterlimit="10" stroke-linecap="round" stroke-linejoin="round"/>
<path d="M12.5465 65.9999C14.6059 63.4626 14.6059 60.946 12.5465 58.4085C10.4872 55.8712 10.4872 53.3546 12.5465 50.8171C14.6059 48.2798 14.6059 45.7632 12.5465 43.2257C11.5169 41.957 11.002 40.6935 11.002 39.4301" stroke="black" stroke-width="2" stroke-miterlimit="10" stroke-linecap="round" stroke-linejoin="round"/>
</svg>
