<svg width="37" height="70" viewBox="0 0 37 70" fill="none" xmlns="http://www.w3.org/2000/svg">
<path d="M16.652 25.9494L21.244 25.3416C21.244 25.3416 11.5639 11.5331 14.9559 5.93608C18.348 0.3391 27.6762 3.05278 27.3371 8.14089C26.6864 10.5272 27.0246 13.0749 28.2755 15.2087L29.2028 16.7906L28.9139 15.924C28.4705 14.5938 28.8492 13.127 29.8812 12.1775C30.6041 11.5124 30.9883 10.6155 31.026 9.70344C31.0534 9.68041 31.0685 9.66735 31.0685 9.66735C31.0685 9.66735 31.0547 9.62568 31.0274 9.54996C31.0261 8.72415 30.7428 7.89584 30.161 7.22469L29.3832 6.32741C27.695 3.73406 26.1694 0 19.5353 0C11.0551 0 6.12527 9.65576 16.652 25.9494Z" fill="#EDA507"/>
<path d="M16.0501 47.9783C15.8611 47.6001 15.7699 47.1645 15.8101 46.7045C15.9107 45.5503 16.8541 44.6254 18.01 44.5457C19.3995 44.4499 20.5565 45.5487 20.5565 46.9177C20.5565 47.299 20.4666 47.6594 20.3069 47.9788C20.23 48.1326 20.4358 48.2745 20.5534 48.1492C21.1678 47.4946 21.5145 46.5861 21.4186 45.5975C21.2671 44.036 19.9919 42.7923 18.4273 42.6761C16.5168 42.5342 14.9229 44.0423 14.9229 45.9225C14.9229 46.7843 15.2578 47.5677 15.8047 48.1499C15.9247 48.278 16.1286 48.1353 16.0501 47.9783Z" fill="#89440B"/>
<path d="M16.7324 32.9395C14.9503 34.2356 13.137 35.4967 11.2977 36.7104C9.65489 37.7943 7.55015 38.0376 5.72069 37.2895C4.84337 36.9308 4.06026 36.3545 3.4723 35.6097C3.18353 35.2441 2.95815 34.8414 2.74495 34.4284C2.51971 33.9924 2.29946 33.554 2.10123 33.1048C2.03036 32.9443 1.9608 32.7834 1.89551 32.6205C2.56344 33.0927 3.18808 33.6244 3.7979 34.1687C4.44279 34.7441 5.19758 35.1786 6.03484 35.4036C6.92169 35.6419 7.86974 35.6392 8.75131 35.3777C9.66442 35.1069 10.4264 34.5223 11.2123 34.0059C12.8588 32.9242 14.5257 31.8694 16.2128 30.8481C17.8785 29.8396 18.5101 31.6466 16.7324 32.9395Z" fill="#E86B2D"/>
<path d="M16.7778 31.6667C14.5932 31.9553 12.3978 32.1984 10.2024 32.3871C8.24133 32.5557 6.27584 31.7653 5.02494 30.2349C4.4251 29.5011 4.01205 28.6208 3.85049 27.6858C3.77126 27.2267 3.76539 26.7652 3.77493 26.3005C3.78505 25.8098 3.8006 25.3195 3.84081 24.8303C3.85519 24.6554 3.87074 24.4807 3.89114 24.3063C4.25283 25.0401 4.54806 25.8053 4.82436 26.5746C5.1165 27.388 5.5724 28.1301 6.20086 28.7273C6.86659 29.3599 7.70091 29.8101 8.60038 30.0008C9.53199 30.1985 10.4806 30.0484 11.4178 29.9696C13.3809 29.8045 15.3491 29.673 17.3191 29.5806C19.2642 29.4895 18.9569 31.3788 16.7778 31.6667Z" fill="#E86B2D"/>
<path d="M18.0454 29.5955C15.8824 29.1749 13.7235 28.7077 11.5819 28.1888C9.66897 27.7254 8.05652 26.3511 7.35705 24.5026C7.02161 23.6162 6.90966 22.6502 7.05375 21.7125C7.12447 21.2519 7.26563 20.8126 7.42249 20.375C7.588 19.9131 7.75865 19.4531 7.95219 19.0019C8.02145 18.8406 8.09174 18.6799 8.16643 18.5212C8.27618 19.3319 8.31286 20.1512 8.33032 20.9684C8.34881 21.8325 8.54529 22.6811 8.9513 23.447C9.38137 24.2583 10.0295 24.9503 10.8217 25.4172C11.6422 25.9007 12.5894 26.0599 13.503 26.2831C15.4168 26.7505 17.3248 27.2513 19.2219 27.7899C21.0948 28.3215 20.2031 30.0152 18.0454 29.5955Z" fill="#E86B2D"/>
<path d="M19.6244 32.9395C21.4065 34.2356 23.2198 35.4967 25.0591 36.7104C26.7019 37.7943 28.8067 38.0376 30.6361 37.2895C31.5134 36.9308 32.2966 36.3545 32.8845 35.6097C33.1733 35.2441 33.3987 34.8414 33.6119 34.4284C33.8371 33.9924 34.0574 33.554 34.2556 33.1048C34.3265 32.9443 34.396 32.7834 34.4613 32.6205C33.7934 33.0927 33.1687 33.6244 32.5588 34.1687C31.9139 34.7441 31.1591 35.1786 30.3218 35.4036C29.435 35.6419 28.4869 35.6392 27.6054 35.3777C26.6922 35.1069 25.9303 34.5223 25.1444 34.0059C23.4979 32.9242 21.831 31.8694 20.1439 30.8481C18.4783 29.8396 17.8467 31.6466 19.6244 32.9395Z" fill="#E86B2D"/>
<path d="M19.5792 31.6667C21.7638 31.9553 23.9592 32.1984 26.1546 32.3871C28.1157 32.5557 30.0812 31.7653 31.3321 30.2349C31.9318 29.5011 32.345 28.6208 32.5065 27.6858C32.5858 27.2267 32.5916 26.7652 32.5821 26.3005C32.572 25.8098 32.5564 25.3195 32.5162 24.8303C32.5018 24.6554 32.4863 24.4807 32.4659 24.3063C32.1042 25.0401 31.8089 25.8053 31.5326 26.5746C31.2405 27.388 30.7846 28.1301 30.1561 28.7273C29.4904 29.3599 28.6561 29.8101 27.7566 30.0008C26.825 30.1985 25.8764 30.0484 24.9392 29.9696C22.9761 29.8045 21.0078 29.673 19.0379 29.5806C17.0928 29.4895 17.3999 31.3788 19.5792 31.6667Z" fill="#E86B2D"/>
<path d="M18.3115 29.5955C20.4744 29.1749 22.6333 28.7077 24.7749 28.1888C26.6879 27.7254 28.3003 26.3511 28.9998 24.5026C29.3352 23.6162 29.4472 22.6502 29.3031 21.7125C29.2323 21.2519 29.0912 20.8126 28.9343 20.375C28.7688 19.9131 28.5982 19.4531 28.4046 19.0019C28.3354 18.8406 28.2651 18.6799 28.1904 18.5212C28.0806 19.3319 28.044 20.1512 28.0265 20.9684C28.008 21.8325 27.8117 22.6811 27.4055 23.447C26.9754 24.2583 26.3273 24.9503 25.5351 25.4172C24.7146 25.9007 23.7674 26.0599 22.8539 26.2831C20.94 26.7505 19.0321 27.2513 17.135 27.7899C15.2621 28.3215 16.1539 30.0152 18.3115 29.5955Z" fill="#E86B2D"/>
<path d="M20.4848 42.1053C23.2104 42.0096 25.7442 42.8106 27.815 44.2358C29.9452 45.7018 30.8468 48.4019 30.0352 50.857C29.9832 51.0148 29.8505 51.1291 29.6573 51.2272C27.5333 52.3073 26.0619 54.3429 25.8639 56.7175L25.6719 59.0223C25.6719 59.0223 26.37 58.0333 27.4596 57.2819C28.8364 56.3325 30.6225 57.6626 30.1008 59.2517C29.0753 62.3763 25.6205 65.7712 23.255 67.8187C21.914 68.9795 20.923 69.7073 20.923 69.7073L22.3611 69.636C30.3317 68.8988 36.5468 62.1063 36.3525 53.8992C36.1572 45.6486 29.398 38.9573 21.1459 38.8409C16.8331 38.78 19.1136 39.5065 19.2269 40.3658C19.3405 41.2252 17.2868 42.2175 20.4848 42.1053Z" fill="#E86B2D"/>
<path d="M15.8723 42.1053C13.1467 42.0096 10.6129 42.8106 8.54208 44.2358C6.4121 45.7018 5.51028 48.4019 6.32172 50.857C6.37381 51.0148 6.50645 51.1291 6.6997 51.2272C8.82366 52.3073 10.2951 54.3429 10.493 56.7175L10.6851 59.0223C10.6851 59.0223 9.98696 58.0333 8.89732 57.2819C7.52052 56.3325 5.73449 57.6626 6.25613 59.2517C7.28164 62.3763 10.7363 65.7712 13.1019 67.8187C14.4429 68.9795 15.434 69.7073 15.434 69.7073L13.9958 69.636C6.02532 68.8988 -0.189701 62.1063 0.00442627 53.8992C0.199728 45.6486 6.95898 38.9573 15.2111 38.8409C19.5239 38.78 17.2432 39.5065 17.1301 40.3658C17.0168 41.2252 19.0703 42.2175 15.8723 42.1053Z" fill="#E86B2D"/>
<path d="M18.1785 43.5883C20.8013 43.5883 22.9274 38.9563 22.9274 33.2424C22.9274 27.5286 20.8013 22.8966 18.1785 22.8966C15.5558 22.8966 13.4297 27.5286 13.4297 33.2424C13.4297 38.9563 15.5558 43.5883 18.1785 43.5883Z" fill="#FFB600"/>
</svg>
