<svg width="28" height="29" viewBox="0 0 28 29" fill="none" xmlns="http://www.w3.org/2000/svg">
<path d="M27.2479 12.6786C27.2472 12.678 27.2466 12.6774 27.2459 12.6767L15.823 1.25537C15.3361 0.768311 14.6888 0.5 14.0002 0.5C13.3116 0.5 12.6643 0.768097 12.1771 1.25516L0.760177 12.6707C0.756332 12.6746 0.752486 12.6786 0.74864 12.6825C-0.251218 13.688 -0.249508 15.3195 0.753554 16.3224C1.21182 16.7809 1.81708 17.0464 2.46421 17.0742C2.49049 17.0767 2.51698 17.078 2.54368 17.078H2.99896V25.4834C2.99896 27.1467 4.3524 28.5 6.01627 28.5H10.4853C10.9382 28.5 11.3057 28.1328 11.3057 27.6797V21.0898C11.3057 20.3308 11.9231 19.7135 12.6822 19.7135H15.3181C16.0772 19.7135 16.6947 20.3308 16.6947 21.0898V27.6797C16.6947 28.1328 17.0619 28.5 17.5151 28.5H21.9841C23.6479 28.5 25.0014 27.1467 25.0014 25.4834V17.078H25.4235C26.1119 17.078 26.7593 16.8099 27.2466 16.3228C28.2507 15.3182 28.2511 13.684 27.2479 12.6786Z" fill="#535FD8"/>
</svg>
