<svg width="65" height="60" viewBox="0 0 65 60" fill="none" xmlns="http://www.w3.org/2000/svg">
<path d="M61.488 39.648L54.7706 18.7078H53.0684V17.5622C56.3977 16.7416 56.4545 13.4591 56.4545 13.4591C56.4545 13.4591 55.1931 14.9398 53.0684 15.5147V14.6087H51.74V15.7361C51.6852 15.7381 51.6344 15.7523 51.5775 15.7544C48.5509 15.8275 47.1859 10.8063 43.3773 10.8063C39.8308 10.8063 35.8698 12.9167 33.3084 13.2092V7.49531C35.1203 7.21297 36.5056 5.66516 36.5056 3.77609C36.5097 1.69203 34.8156 0 32.7295 0C30.6455 0 28.9534 1.69203 28.9534 3.77609C28.9534 5.76672 30.5012 7.38156 32.4573 7.52781V13.1666C29.8959 12.7623 26.0955 10.8063 22.6748 10.8063C18.8663 10.8063 17.5053 15.8275 14.4767 15.7544C14.2309 15.7463 14.0055 15.7077 13.7739 15.6772V14.6087H12.4455V15.3664C10.6437 14.7123 9.60172 13.4611 9.60172 13.4611C9.60172 13.4611 9.65859 16.3678 12.4455 17.3895V18.7078H10.7453L3.91016 39.65H0C0 39.65 2.80516 45.0105 12.8517 45.0105C22.8983 45.0105 25.7034 39.65 25.7034 39.65H22.1914L15.4781 18.7098H13.7739V17.7023C14.042 17.7308 14.3223 17.747 14.625 17.747C19.5752 17.747 20.3125 14.6087 23.0466 14.6087C25.5064 14.6087 28.3888 17.6637 31.9414 18.2812C32.0938 18.3239 32.8392 18.2731 32.6158 18.328L32.5 30.0625L30.2433 34.6328L30.3205 48.4006H24.117V50.8361L19.1303 59.0362H47.4927L41.3989 50.7244V48.3966H35.9714V34.7547L33.6862 29.9528L33.6842 18.2995C33.8894 18.2975 33.8812 18.3422 34.1169 18.2792C37.6695 17.6617 40.5519 14.6067 43.0117 14.6067C45.7478 14.6067 46.4831 17.745 51.4333 17.745C51.547 17.745 51.6405 17.7328 51.742 17.7288V18.7037H50.0439L43.2087 39.6439H39.2966C39.2966 39.6439 42.1017 45.0044 52.1483 45.0044C62.1948 45.0044 65 39.648 65 39.648H61.488ZM12.4455 39.648H5.30969L11.7081 20.0403H12.4455V39.648ZM14.5092 20.0383L20.798 39.6439H13.7739V20.0383H14.5092ZM51.742 39.648H44.6042L51.0027 20.0403H51.74L51.742 39.648ZM53.0705 39.648V20.0383H53.8038L60.0925 39.6439L53.0705 39.648Z" fill="black"/>
</svg>
