<svg width="65" height="65" viewBox="0 0 65 65" fill="none" xmlns="http://www.w3.org/2000/svg">
<path d="M62.5155 40.796C65.5077 37.1388 69.665 11.5384 48.8841 2.89411C28.1059 -5.75018 18.1317 7.21625 18.2966 12.5358C11.3147 15.028 9.81727 22.8425 9.81727 22.8425C9.81727 22.8425 -0.324473 27.8295 0.00799942 33.814C0.340472 39.7986 7.65487 40.131 7.65487 40.131L9.87312 43.1791L10.3146 40.131C10.3146 40.131 21.2437 35.0881 21.7437 39.498C22.2438 43.9026 12.1472 45.4506 12.1472 45.4506L10.0965 43.9558L10.7216 46.7459C10.7216 46.7459 8.49004 47.4481 9.48746 49.6052C11.4823 52.9299 18.1317 48.4402 18.1317 48.4402C18.1317 48.4402 12.9824 67.8752 27.7708 63.569C18.6265 58.9144 26.9383 51.7649 26.9383 51.7649C26.9383 51.7649 28.7682 70.3834 46.8866 59.0793C32.5903 60.5768 35.8672 53.3714 37.4125 51.7649C38.9552 50.1584 46.8866 41.9104 46.8866 41.9104C46.8866 41.9104 51.0439 48.1077 40.9021 55.7067C54.201 59.2522 54.866 34.9817 54.866 34.9817C54.866 34.9817 58.0258 46.6182 49.7113 54.43C68.6622 50.2754 59.1854 26.5023 59.1854 26.5023C59.1854 26.5023 62.6804 27.662 62.5155 40.796ZM12.4664 22.1775C12.1472 20.9726 13.0622 20.0151 14.0171 19.8502C14.9719 19.6853 18.4509 20.712 19.459 21.2519C20.467 21.7918 12.7856 23.3824 12.4664 22.1775Z" fill="black"/>
</svg>
