<svg width="44" height="28" viewBox="0 0 44 28" fill="none" xmlns="http://www.w3.org/2000/svg">
<path fill-rule="evenodd" clip-rule="evenodd" d="M35.3862 4.06484C35.3862 4.06484 38.9714 11.2353 34.5355 18.9174C32.3647 22.6752 29.4937 25.4479 26.8915 26.7019C24.7729 27.7211 22.7786 27.7672 21.2478 26.8844C19.717 25.9997 18.76 24.2502 18.5835 21.9048C18.3688 19.0258 19.3338 15.1516 21.5026 11.3938C25.9386 3.71173 33.9417 3.23022 33.9417 3.23022C34.5476 3.1901 35.1173 3.51913 35.3862 4.06484Z" fill="#C2C2C2"/>
<path fill-rule="evenodd" clip-rule="evenodd" d="M13.4392 26.8848C11.774 26.4153 10.0165 25.681 8.28302 24.6819C0.897849 20.4165 0.436401 12.7244 0.436401 12.7244C0.396276 12.1164 0.725308 11.5467 1.27102 11.2778C1.27102 11.2778 2.7316 10.5636 5.03282 10.1884C4.95257 13.0072 5.48825 16.4179 7.5126 19.9209C9.21394 22.8702 11.3266 25.2537 13.4392 26.8848ZM38.7486 10.1382C41.1762 10.4974 42.7291 11.2778 42.7291 11.2778C43.2748 11.5467 43.6038 12.1164 43.5637 12.7244C43.5637 12.7244 43.1022 20.4165 35.7171 24.6819C33.8673 25.7492 31.9894 26.5136 30.2259 26.9771C32.3766 25.3419 34.5374 22.9264 36.2728 19.9209C38.3072 16.3959 38.8369 12.9671 38.7486 10.1382Z" fill="#C2C2C2"/>
<path fill-rule="evenodd" clip-rule="evenodd" d="M17.6243 3.83403C19.3597 1.44252 21.1654 0.252793 21.1654 0.252793C21.671 -0.0842643 22.329 -0.0842643 22.8346 0.252793C22.8346 0.252793 24.5961 1.41243 26.3095 3.74374C24.8228 4.62451 23.29 5.81223 21.8917 7.41125C20.5414 5.8664 19.0648 4.70476 17.6243 3.83403Z" fill="#C2C2C2"/>
<path fill-rule="evenodd" clip-rule="evenodd" d="M18.6535 27.3338C18.0817 27.2014 17.4919 26.9908 16.892 26.7019C14.2898 25.4479 11.4188 22.6752 9.25002 18.9174C4.81411 11.2353 8.39735 4.06484 8.39735 4.06484C8.66619 3.51913 9.23598 3.1901 9.84389 3.23022C9.84389 3.23022 16.1156 3.60741 20.6317 9.02641C20.3328 9.45576 20.0419 9.91118 19.765 10.3907C17.3615 14.5558 16.3443 18.8633 16.583 22.0553C16.7495 24.2742 17.4999 26.0639 18.6535 27.3338Z" fill="#C2C2C2"/>
</svg>
