<svg width="180" height="180" viewBox="0 0 180 180" fill="none" xmlns="http://www.w3.org/2000/svg">
<path d="M179.758 89.8789C179.758 139.439 139.438 179.758 89.8789 179.758C40.3201 179.758 0 139.439 0 89.8789C0 40.3201 40.3201 0 89.8789 0C139.438 0 179.758 40.3201 179.758 89.8789Z" fill="#FCFCFC" fill-opacity="0.09"/>
<g opacity="0.9">
<path d="M59.511 43.4652C60.1734 44.5574 61.2719 45.2093 62.5873 45.422C67.8468 45.835 73.1106 47.1241 78.0505 49.4006C82.7702 51.4591 87.1661 54.5049 91.1281 58.4291C100.043 67.2585 104.589 78.9567 104.645 90.5668C104.701 102.177 100.266 113.918 91.4369 122.833C87.7307 126.575 83.4732 129.552 79.1025 131.764C74.4038 134.087 69.4817 135.534 64.4455 135.996C62.2559 136.226 60.732 138.205 60.9615 140.394C61.1869 141.708 61.8493 142.8 62.9478 143.452C74.8096 150.186 88.5129 152.64 101.758 150.933C114.674 149.119 127.023 143.254 136.834 133.349C148.715 121.353 154.664 105.662 154.589 89.8893C154.513 74.117 148.524 58.5921 136.418 46.6015C126.293 36.5731 113.45 30.8294 100.189 29.25C86.7089 27.6717 72.8128 30.6957 60.9092 38.0914C58.9429 39.1962 58.2973 41.609 59.511 43.4652Z" fill="#F2F2F2"/>
</g>
</svg>
