<svg width="65" height="68" viewBox="0 0 65 68" fill="none" xmlns="http://www.w3.org/2000/svg">
<path d="M32.5 67.9181C50.4492 67.9181 64.9999 53.3673 64.9999 35.4181C64.9999 17.4689 50.4492 2.91815 32.5 2.91815C14.5507 2.91815 0 17.4689 0 35.4181C0 53.3673 14.5507 67.9181 32.5 67.9181Z" fill="#2740B0"/>
<path d="M55.4949 42.9984C55.3109 42.9984 55.1282 43.0041 54.9464 43.0132C53.9853 39.5934 51.4083 36.8513 48.0911 35.6619C48.0019 35.7508 47.9115 35.8389 47.8193 35.9251C45.6337 37.968 42.7834 39.0931 39.7934 39.0931C39.4756 39.0931 39.1538 39.0801 38.8369 39.0544C38.5698 39.0328 38.3581 38.8061 38.3544 38.5382C38.3463 37.94 38.3848 37.3456 38.4666 36.7596C36.9308 37.7486 35.6575 39.1101 34.7754 40.7172C33.054 37.5808 29.8433 35.3788 26.0952 35.0614C25.846 35.3442 25.5833 35.6166 25.3058 35.8759C24.0587 37.0415 22.6049 37.9047 20.9847 38.4415L20.7653 38.5142L20.9388 38.6669C25.1901 42.4085 29.1407 44.077 33.749 44.077C37.3567 44.077 41.3839 43.0181 46.0605 40.8398C46.7162 40.5343 47.4053 40.3795 48.1084 40.3795C49.4238 40.3795 50.7036 40.9337 51.6201 41.9001C52.5304 42.8602 52.9925 44.1257 52.9213 45.4634C52.799 47.7587 51.944 50.0297 50.4488 52.0309C48.9257 54.159 46.5865 56.0866 43.8603 57.4606C40.8352 58.9854 37.4391 59.7914 34.0395 59.7914C34.0394 59.7914 34.0394 59.7914 34.0391 59.7914C33.6639 59.7914 33.2846 59.7815 32.9084 59.762C34.1579 58.1067 34.9419 56.1543 35.18 54.0995C35.2188 53.7659 34.9915 53.4505 34.6631 53.3814C33.8743 53.2155 33.0659 53.1314 32.2606 53.1314C29.8185 53.1314 27.4769 53.8882 25.4885 55.3198C24.7166 55.8756 24.0134 56.5282 23.3973 57.2605C18.3038 54.4685 15.9647 50.2553 15.0216 47.9837C13.7807 45.1597 13.5015 41.8564 14.2544 38.9182L14.2887 38.7844L14.1538 38.7555C11.8001 38.251 9.68614 37.0537 8.04045 35.2932C5.92357 33.0286 4.78899 30.0063 4.87787 26.9197C3.90751 26.1709 2.83236 25.5514 1.67656 25.09C0.569438 28.3956 -0.0219291 31.9377 0.000621882 35.6212C0.110989 53.6242 14.6939 68.0242 32.6969 67.9173C46.8 67.8336 58.7717 58.7659 63.184 46.1488C61.2052 44.2013 58.491 42.9984 55.4949 42.9984Z" fill="#314DC9"/>
<path d="M34.0391 59.7919C33.6108 59.7919 33.1802 59.777 32.7498 59.7516C32.0746 60.6324 31.2704 61.419 30.3549 62.0782C29.7864 62.4875 29.1878 62.8392 28.5669 63.1349C28.6294 63.8268 28.7534 64.5115 28.9373 65.1804C29.0268 65.506 29.353 65.7119 29.6856 65.6526C32.7867 65.1 35.6535 63.2944 37.4674 60.4208C37.6742 60.0933 37.8615 59.759 38.0317 59.4199C36.7162 59.6649 35.3781 59.7919 34.0391 59.7919Z" fill="#FFE177"/>
<path d="M31.5473 61.0892C31.1745 61.4435 30.7766 61.7745 30.3549 62.0782C29.7864 62.4875 29.1878 62.8392 28.5669 63.1349C28.6294 63.8268 28.7534 64.5115 28.9373 65.1804C29.0268 65.506 29.353 65.7119 29.6856 65.6526C30.3752 65.5297 31.0523 65.3413 31.7098 65.0965C31.4254 63.7891 31.3684 62.4325 31.5473 61.0892Z" fill="#FFD15B"/>
<path d="M16.3401 34.8543C16.4396 34.7509 16.5741 34.694 16.7186 34.694C16.867 34.694 17.0096 34.7566 17.1096 34.8656C18.462 36.3395 19.6988 37.5713 20.8795 38.6162C22.5133 38.0984 24.061 37.2211 25.3966 35.9727C27.9435 33.592 29.2097 30.3543 29.1661 27.1229C29.1615 26.7853 28.8982 26.5037 28.5617 26.4764C25.3405 26.215 22.025 27.2602 19.4779 29.6409C18.6306 30.4329 17.9255 31.3198 17.3629 32.2696C17.0996 32.7141 16.4412 32.6918 16.2085 32.2306C15.7112 31.245 15.0673 30.3126 14.2754 29.4654C11.8947 26.9185 8.65699 25.6523 5.42544 25.696C5.08784 25.7005 4.80621 25.9637 4.77889 26.3003C4.51769 29.5216 5.56273 32.8371 7.94345 35.3841C9.6958 37.2588 11.9126 38.4379 14.2492 38.913C14.6797 37.2372 15.4165 35.8137 16.3401 34.8543Z" fill="white"/>
<path d="M17.2489 32.9951C17.7157 33.7653 18.8157 33.7893 19.3331 33.0521C19.7982 32.3894 20.3385 31.7645 20.9534 31.1895C23.2659 29.028 26.2119 27.9677 29.1457 27.9862C29.1627 27.6969 29.1697 27.4069 29.1656 27.1171C29.1609 26.782 28.8984 26.5036 28.5645 26.4764C25.3424 26.2141 22.0254 27.2592 19.4777 29.6407C18.6304 30.4326 17.9252 31.3195 17.3627 32.2693C17.2705 32.4251 17.1295 32.5222 16.9756 32.5645C17.0699 32.7068 17.161 32.8502 17.2489 32.9951Z" fill="#F9F3F1"/>
<path d="M14.9493 36.9407C13.6036 36.3158 12.3519 35.4303 11.2765 34.2797C9.08294 31.9331 8.02424 28.9338 8.07544 25.957C7.20352 25.7715 6.31434 25.6838 5.42544 25.6957C5.08784 25.7002 4.80621 25.9634 4.77889 26.3001C4.51769 29.5213 5.56273 32.8368 7.94345 35.3839C9.6958 37.2585 11.9126 38.4377 14.2492 38.9127C14.4311 38.2051 14.667 37.5423 14.9493 36.9407Z" fill="#F9F3F1"/>
<path d="M46.0045 40.7194C32.0422 47.223 24.9416 43.2055 17.2073 34.7759C16.9502 34.4957 16.5081 34.4884 16.2443 34.7624C13.8464 37.2533 12.6481 42.9126 14.899 48.0347C16.359 51.5512 19.2097 55.1463 23.4294 57.4293C24.0484 56.6793 24.7645 56.0047 25.5659 55.4277C27.5314 54.0124 29.8464 53.2643 32.2605 53.2643C33.0566 53.2643 33.8557 53.3474 34.6356 53.5115C34.8979 53.5667 35.0791 53.8184 35.0482 54.0845C34.801 56.2174 33.9576 58.2228 32.6495 59.8803C40.5524 60.3807 47.3871 56.5372 50.555 52.1106C52.1644 49.9567 52.9365 47.6696 53.0537 45.4708C53.2529 41.7296 49.4004 39.1375 46.0045 40.7194Z" fill="#FFC344"/>
<path d="M32.2974 47.262C32.2974 48.265 33.0025 49.1114 33.9415 49.3298C34.187 49.3869 34.4198 49.1919 34.4198 48.9398V45.5842C34.4198 45.3322 34.187 45.1372 33.9415 45.1942C33.0025 45.4127 32.2974 46.2591 32.2974 47.262Z" fill="#FEB137"/>
<path d="M34.4198 53.469V51.023C34.4198 50.771 34.187 50.576 33.9415 50.633C33.0024 50.8514 32.2974 51.6977 32.2974 52.7008C32.2974 52.8964 32.325 53.0855 32.375 53.2657C33.06 53.2726 33.7462 53.3406 34.4198 53.469Z" fill="#FEB137"/>
<path d="M27.2568 47.8374C27.2568 48.8404 27.962 49.6867 28.9009 49.9052C29.1465 49.9622 29.3793 49.7672 29.3793 49.5152V46.1596C29.3793 45.9075 29.1465 45.7125 28.9009 45.7696C27.962 45.988 27.2568 46.8344 27.2568 47.8374Z" fill="#FEB137"/>
<path d="M29.3793 53.6327V51.5985C29.3793 51.3464 29.1465 51.1514 28.9009 51.2085C27.9619 51.4268 27.2568 52.2731 27.2568 53.2763C27.2568 53.6438 27.3522 53.9899 27.5184 54.2923C28.1195 54.0175 28.7419 53.7983 29.3793 53.6327Z" fill="#FEB137"/>
<path d="M22.3486 46.1561C22.3486 47.1591 23.0538 48.0054 23.9927 48.2239C24.2383 48.2809 24.4711 48.0859 24.4711 47.8339V44.4783C24.4711 44.2263 24.2383 44.0313 23.9927 44.0883C23.0538 44.3068 22.3486 45.1531 22.3486 46.1561Z" fill="#FEB137"/>
<path d="M22.3486 51.5949C22.3486 52.5979 23.0538 53.4442 23.9927 53.6627C24.2383 53.7197 24.4711 53.5247 24.4711 53.2727V49.9171C24.4711 49.665 24.2383 49.47 23.9927 49.5271C23.0538 49.7456 22.3486 50.5919 22.3486 51.5949Z" fill="#FEB137"/>
<path d="M17.7056 42.5745C17.7056 43.5775 18.4107 44.4238 19.3497 44.6423C19.5952 44.6993 19.828 44.5043 19.828 44.2523V40.8967C19.828 40.6446 19.5952 40.4496 19.3497 40.5067C18.4107 40.7252 17.7056 41.5715 17.7056 42.5745Z" fill="#FEB137"/>
<path d="M17.7056 48.0133C17.7056 49.0163 18.4107 49.8626 19.3497 50.0811C19.5952 50.1381 19.828 49.9431 19.828 49.6911V46.3355C19.828 46.0834 19.5952 45.8884 19.3497 45.9455C18.4107 46.1639 17.7056 47.0103 17.7056 48.0133Z" fill="#FEB137"/>
<path d="M25.4883 55.3199C22.7306 57.3056 21.1032 60.2771 20.7407 63.4062C20.7018 63.7416 20.9272 64.0547 21.2578 64.1242C24.3403 64.7726 27.6746 64.1716 30.4322 62.1859C33.1898 60.2002 34.8173 57.2286 35.1798 54.0996C35.2187 53.7642 34.9933 53.4511 34.6627 53.3816C31.5803 52.733 28.246 53.3342 25.4883 55.3199Z" fill="#FFF0AD"/>
<path d="M27.7121 56.4432C29.9597 54.825 32.59 54.1266 35.155 54.2745C35.1627 54.2161 35.1729 54.1581 35.1798 54.0996C35.2187 53.7642 34.9933 53.4511 34.6627 53.3816C31.5803 52.733 28.2459 53.3342 25.4883 55.3199C22.7306 57.3056 21.1032 60.2771 20.7407 63.4062C20.7018 63.7416 20.9272 64.0547 21.2578 64.1242C21.828 64.2441 22.4071 64.3211 22.9893 64.3546C23.3913 61.2901 25.006 58.3918 27.7121 56.4432Z" fill="#FFE177"/>
<path d="M46.0264 40.7092C42.6417 42.2876 39.6607 43.2471 36.9756 43.6768C37.0008 45.0611 37.6504 46.3235 38.6791 47.1575C38.5116 47.5533 38.3962 47.979 38.3448 48.4277C38.0568 50.9476 39.8661 53.2241 42.386 53.5121C42.6092 53.5375 42.8304 53.5459 43.0486 53.5394C43.2912 54.9177 44.1554 56.1083 45.3709 56.7727C47.5479 55.4513 49.3276 53.8254 50.5549 52.1103C52.1642 49.9563 52.9364 47.6694 53.0535 45.4705C53.2524 41.7403 49.4118 39.1304 46.0264 40.7092Z" fill="#FFD15B"/>
<path d="M44.9794 48.1297C45.9124 48.1297 46.6687 47.3734 46.6687 46.4404C46.6687 45.5074 45.9124 44.751 44.9794 44.751C44.0464 44.751 43.29 45.5074 43.29 46.4404C43.29 47.3734 44.0464 48.1297 44.9794 48.1297Z" fill="#EC806B"/>
<path d="M34.6379 5.91122C35.3131 5.03041 36.1174 4.24377 37.0328 3.58462C37.601 3.17565 38.199 2.82412 38.8194 2.52857C38.7571 1.83652 38.6344 1.15137 38.4504 0.482402C38.3608 0.156739 38.0346 -0.0491382 37.7021 0.0101576C34.6009 0.562789 31.7342 2.36833 29.9203 5.24199C29.7135 5.56951 29.5262 5.90379 29.356 6.24285C30.6715 5.99811 32.0095 5.87116 33.3485 5.87116C33.7769 5.87089 34.2075 5.88575 34.6379 5.91122Z" fill="#FFD15B"/>
<path d="M59.4443 30.2788C57.6919 28.4041 55.4752 27.225 53.1385 26.7499C52.7082 28.4256 51.9714 29.849 51.0477 30.8085C50.9482 30.9119 50.8137 30.9688 50.6694 30.9688C50.6693 30.9688 50.6693 30.9688 50.6693 30.9688C50.5208 30.9688 50.3782 30.9062 50.2782 30.7972C48.9258 29.3233 47.6891 28.0915 46.5084 27.0466C44.8746 27.5644 43.3268 28.4417 41.9913 29.6901C39.4443 32.0708 38.1782 35.3084 38.2218 38.5399C38.2263 38.8775 38.4896 39.1591 38.8262 39.1864C42.0474 39.4477 45.3629 38.4026 47.91 36.0218C48.7572 35.2299 49.4624 34.343 50.025 33.3932C50.2883 32.9487 50.9467 32.971 51.1793 33.4322C51.6766 34.4178 52.3205 35.3502 53.1125 36.1973C55.4932 38.7443 58.7309 40.0105 61.9624 39.9668C62.3 39.9623 62.5816 39.6991 62.609 39.3624C62.8702 36.1414 61.8251 32.8258 59.4443 30.2788Z" fill="white"/>
<path d="M55.0855 34.168C54.7815 33.8427 54.4992 33.5049 54.2387 33.1562C53.3877 32.0174 51.7018 31.99 50.7729 33.066C50.7652 33.0751 50.7573 33.0839 50.7495 33.093C50.9257 33.1356 51.0863 33.2484 51.1792 33.4323C51.6765 34.4179 52.3204 35.3503 53.1123 36.1974C55.493 38.7444 58.7307 40.0106 61.9623 39.9669C62.3004 39.9624 62.5816 39.6983 62.6089 39.3612C62.6487 38.8699 62.6578 38.3763 62.6367 37.8836C59.8507 37.6175 57.1468 36.3732 55.0855 34.168Z" fill="#F3EAE6"/>
<path d="M46.5084 27.0466C44.8746 27.5644 43.3268 28.4417 41.9913 29.6901C39.4443 32.0708 38.1782 35.3085 38.2218 38.5399C38.2263 38.8775 38.4896 39.1591 38.8262 39.1864C39.9548 39.278 41.0948 39.2085 42.2095 38.978C42.1018 38.8622 42.0353 38.7081 42.0329 38.5399C41.9893 35.3085 43.2554 32.0708 45.8024 29.6901C46.415 29.1174 47.0728 28.6239 47.7622 28.2057C47.3357 27.7947 46.9186 27.4098 46.5084 27.0466Z" fill="#F3EAE6"/>
<path d="M52.4888 17.6282C51.0288 14.1117 48.1781 10.5165 43.9584 8.23359C43.3393 8.98361 42.6232 9.65815 41.8219 10.2352C39.8564 11.6505 37.5413 12.3986 35.1275 12.3986C35.1274 12.3986 35.1274 12.3986 35.1273 12.3986C34.331 12.3986 33.532 12.3154 32.7521 12.1514C32.4899 12.0962 32.3087 11.8445 32.3396 11.5784C32.5867 9.44551 33.4301 7.44006 34.7382 5.78256C26.8353 5.28219 20.0006 9.12568 16.8327 13.5523C15.2234 15.7062 14.4512 17.9933 14.3341 20.1921C14.1348 23.9331 17.9873 26.525 21.3833 24.9432C35.3455 18.4396 42.4461 22.4572 50.1805 30.8867C50.4375 31.1669 50.8797 31.1742 51.1434 30.9003C53.5412 28.4096 54.7396 22.7503 52.4888 17.6282Z" fill="#FFC344"/>
<path d="M35.0902 18.4008C35.0902 17.3978 34.385 16.5515 33.4461 16.333C33.2006 16.2759 32.9678 16.4709 32.9678 16.723V20.0786C32.9678 20.3306 33.2006 20.5256 33.4461 20.4686C34.385 20.2501 35.0902 19.4038 35.0902 18.4008Z" fill="#FEB137"/>
<path d="M32.9678 12.1938V14.6398C32.9678 14.8918 33.2006 15.0868 33.4461 15.0298C34.3852 14.8114 35.0902 13.9651 35.0902 12.962C35.0902 12.7664 35.0626 12.5773 35.0126 12.3971C34.3275 12.3902 33.6414 12.3222 32.9678 12.1938Z" fill="#FEB137"/>
<path d="M40.1312 17.8254C40.1312 16.8224 39.4261 15.9761 38.4871 15.7576C38.2416 15.7006 38.0088 15.8956 38.0088 16.1476V19.5032C38.0088 19.7552 38.2416 19.9502 38.4871 19.8932C39.4261 19.6747 40.1312 18.8284 40.1312 17.8254Z" fill="#FEB137"/>
<path d="M38.0088 12.0301V14.0644C38.0088 14.3165 38.2416 14.5115 38.4871 14.4544C39.4262 14.2361 40.1312 13.3898 40.1312 12.3867C40.1312 12.0191 40.0359 11.673 39.8696 11.3707C39.2686 11.6453 38.6462 11.8645 38.0088 12.0301Z" fill="#FEB137"/>
<path d="M45.0394 19.5067C45.0394 18.5037 44.3343 17.6574 43.3953 17.4389C43.1498 17.3818 42.917 17.5768 42.917 17.8289V21.1845C42.917 21.4365 43.1498 21.6315 43.3953 21.5745C44.3343 21.356 45.0394 20.5097 45.0394 19.5067Z" fill="#FEB137"/>
<path d="M45.0394 14.0679C45.0394 13.0649 44.3343 12.2186 43.3953 12.0001C43.1498 11.9431 42.917 12.1381 42.917 12.3901V15.7457C42.917 15.9977 43.1498 16.1927 43.3953 16.1357C44.3343 15.9172 45.0394 15.0709 45.0394 14.0679Z" fill="#FEB137"/>
<path d="M49.682 23.0883C49.682 22.0853 48.9768 21.239 48.0379 21.0205C47.7924 20.9634 47.5596 21.1584 47.5596 21.4105V24.7661C47.5596 25.0181 47.7924 25.2131 48.0379 25.1561C48.9768 24.9376 49.682 24.0913 49.682 23.0883Z" fill="#FEB137"/>
<path d="M49.682 17.6495C49.682 16.6465 48.9768 15.8002 48.0379 15.5817C47.7924 15.5247 47.5596 15.7197 47.5596 15.9717V19.3273C47.5596 19.5793 47.7924 19.7743 48.0379 19.7173C48.9768 19.4988 49.682 18.6525 49.682 17.6495Z" fill="#FEB137"/>
<path d="M41.8995 10.3429C44.6572 8.35719 46.2846 5.38563 46.6471 2.25662C46.686 1.92114 46.4606 1.60808 46.13 1.53857C43.0476 0.890162 39.7132 1.49121 36.9556 3.47689C34.198 5.46257 32.5705 8.43413 32.208 11.5631C32.1691 11.8986 32.3945 12.2117 32.725 12.2812C35.8075 12.9297 39.1417 12.3286 41.8995 10.3429Z" fill="#FFF0AD"/>
<path d="M39.1206 5.40465C41.3463 3.80207 43.9475 3.10193 46.4887 3.23206C46.5541 2.90918 46.6092 2.58405 46.6471 2.2568C46.686 1.92132 46.4606 1.60826 46.13 1.53875C43.0474 0.890207 39.7132 1.49139 36.9556 3.47707C34.1979 5.46275 32.5705 8.43431 32.208 11.5633C32.1691 11.8988 32.3945 12.2119 32.725 12.2814C33.3197 12.4065 33.9238 12.4846 34.5314 12.5156C35.0916 9.75142 36.6514 7.1826 39.1206 5.40465Z" fill="#FFE177"/>
<path d="M21.3612 24.9535C24.7459 23.3751 27.7268 22.4156 30.412 21.986C30.3868 20.6016 29.7372 19.3393 28.7085 18.5053C28.876 18.1095 28.9914 17.6838 29.0428 17.235C29.3307 14.7151 27.5215 12.4387 25.0016 12.1507C24.7784 12.1252 24.5572 12.1169 24.339 12.1234C24.0964 10.7451 23.2322 9.5544 22.0167 8.89008C19.8397 10.2114 18.06 11.8374 16.8327 13.5524C15.2234 15.7064 14.4512 17.9934 14.3341 20.1922C14.1352 23.9224 17.9758 26.5324 21.3612 24.9535Z" fill="#FFD15B"/>
<path d="M22.4086 20.9118C23.3416 20.9118 24.0979 20.1554 24.0979 19.2224C24.0979 18.2894 23.3416 17.5331 22.4086 17.5331C21.4756 17.5331 20.7192 18.2894 20.7192 19.2224C20.7192 20.1554 21.4756 20.9118 22.4086 20.9118Z" fill="#EC806B"/>
<path d="M39.6488 27.9127C37.5391 28.4506 36.8083 29.1814 36.2704 31.2911C36.1811 31.6413 35.6825 31.6413 35.5932 31.2911C35.0553 29.1814 34.3245 28.4506 32.2148 27.9127C31.8646 27.8235 31.8646 27.3248 32.2148 27.2355C34.3245 26.6976 35.0553 25.9668 35.5932 23.8571C35.6825 23.5069 36.1811 23.5069 36.2704 23.8571C36.8083 25.9668 37.5391 26.6976 39.6488 27.2355C39.999 27.3248 39.999 27.8235 39.6488 27.9127Z" fill="#A2AEE6"/>
<path d="M33.7036 26.7044C33.3 26.9149 32.8129 27.0831 32.2148 27.2355C31.8646 27.3248 31.8646 27.8235 32.2148 27.9127C34.3245 28.4507 35.0553 29.1814 35.5932 31.291C35.6825 31.6412 36.1811 31.6412 36.2704 31.291C36.4229 30.6929 36.591 30.2056 36.8015 29.8022C36.288 27.9348 35.5712 27.2179 33.7036 26.7044Z" fill="#8795DE"/>
<path d="M31.6614 36.3041L30.1206 34.7633C30.006 34.6487 29.8203 34.6487 29.7058 34.7633L28.1651 36.3041C28.0504 36.4187 28.0504 36.6044 28.1651 36.7189L29.7058 38.2597C29.8204 38.3743 30.0061 38.3743 30.1206 38.2597L31.6614 36.7189C31.776 36.6044 31.776 36.4187 31.6614 36.3041Z" fill="#00F2A6"/>
<path d="M11.4091 20.1113L9.86819 18.5704C9.75358 18.4558 9.56786 18.4558 9.45338 18.5704L7.91262 20.1113C7.79801 20.2259 7.79801 20.4116 7.91262 20.5261L9.45338 22.0669C9.56799 22.1815 9.75371 22.1815 9.86819 22.0669L11.409 20.5261C11.5236 20.4115 11.5236 20.2258 11.4091 20.1113Z" fill="#00F2A6"/>
<path d="M61.0043 24.1172C59.6168 24.5285 59.0343 25.111 58.6228 26.4987C58.5115 26.8741 57.9736 26.8741 57.8623 26.4987C57.4509 25.1111 56.8685 24.5287 55.4808 24.1172C55.1054 24.0059 55.1054 23.468 55.4808 23.3567C56.8683 22.9453 57.4508 22.3628 57.8623 20.9752C57.9736 20.5998 58.5115 20.5998 58.6228 20.9752C59.0341 22.3627 59.6166 22.9452 61.0043 23.3567C61.3798 23.468 61.3798 24.0059 61.0043 24.1172Z" fill="#A2AEE6"/>
<path d="M58.9821 25.3788C58.5707 23.9913 57.9883 23.4088 56.6006 22.9973C56.5586 22.9849 56.522 22.9664 56.4893 22.9444C56.2088 23.1056 55.8789 23.2386 55.4808 23.3567C55.1054 23.468 55.1054 24.0059 55.4808 24.1172C56.8683 24.5285 57.4508 25.111 57.8623 26.4987C57.9736 26.8741 58.5115 26.8741 58.6228 26.4987C58.7408 26.1006 58.8739 25.7707 59.0349 25.4901C59.0131 25.4575 58.9946 25.4209 58.9821 25.3788Z" fill="#8795DE"/>
<path d="M10.9939 44.0151C9.60637 44.4265 9.02389 45.009 8.6124 46.3966C8.50111 46.772 7.9632 46.772 7.85191 46.3966C7.44055 45.009 6.8582 44.4266 5.47052 44.0151C5.09511 43.9038 5.09511 43.3659 5.47052 43.2546C6.85807 42.8433 7.44055 42.2608 7.85204 40.8731C7.96333 40.4977 8.50124 40.4977 8.61254 40.8731C9.02389 42.2607 9.60637 42.8431 10.9941 43.2546C11.3695 43.3659 11.3695 43.9038 10.9939 44.0151Z" fill="white"/>
<path d="M9.03822 45.2104C8.62673 43.8229 8.04438 43.2404 6.6567 42.8289C6.62434 42.8193 6.59568 42.8055 6.56889 42.7902C6.27028 42.9756 5.91133 43.1239 5.47052 43.2546C5.09511 43.3659 5.09511 43.9038 5.47052 44.0151C6.85807 44.4264 7.44055 45.0089 7.85204 46.3966C7.96333 46.772 8.50124 46.772 8.61254 46.3966C8.7432 45.9558 8.89151 45.5968 9.07695 45.2982C9.06157 45.2714 9.04777 45.2429 9.03822 45.2104Z" fill="#F9F3F1"/>
<path d="M54.0674 56.0418C52.7658 56.3921 52.28 56.8778 51.9298 58.1794C51.859 58.4428 51.4877 58.4428 51.4167 58.1794C51.0664 56.8778 50.5807 56.392 49.2791 56.0418C49.0157 55.971 49.0157 55.5997 49.2791 55.5288C50.5807 55.1785 51.0665 54.6928 51.4167 53.3913C51.4875 53.1278 51.8588 53.1278 51.9298 53.3913C52.2801 54.6928 52.7658 55.1786 54.0674 55.5288C54.3308 55.5997 54.3308 55.971 54.0674 56.0418Z" fill="white"/>
<path d="M50.2872 55.136C50.0177 55.2946 49.689 55.4185 49.2791 55.5287C49.0157 55.5995 49.0157 55.9708 49.2791 56.0418C50.5807 56.3921 51.0665 56.8778 51.4167 58.1794C51.4877 58.4428 51.8588 58.4428 51.9298 58.1794C52.0402 57.7695 52.1641 57.4406 52.3225 57.1713C51.9811 55.9577 51.5008 55.4774 50.2872 55.136Z" fill="#F9F3F1"/>
</svg>
