<svg width="67" height="67" viewBox="0 0 67 67" fill="none" xmlns="http://www.w3.org/2000/svg">
<path d="M49.0844 3.36225C36.3923 2.50116 23.4763 6.48037 14.9783 14.9784C6.48028 23.4763 2.5012 36.3924 3.36216 49.0845C4.27295 34.7755 8.24588 27.0172 17.6315 17.6316C27.0171 8.24597 34.7754 4.27304 49.0844 3.36225Z" fill="#FDB97E"/>
<path d="M49.0845 3.36224C34.7756 4.27304 26.2324 7.46114 16.8468 16.8468C7.4612 26.2324 4.2731 34.7755 3.3623 49.0845C3.57682 52.2471 4.09102 55.3958 4.91169 58.4589C5.22444 39.389 7.75145 29.6045 18.6781 18.678C29.6047 7.75153 39.389 5.22438 58.4589 4.91162C55.3959 4.09096 52.2471 3.57676 49.0845 3.36224Z" fill="#F99675"/>
<path d="M5.46269 5.46269C5.16956 5.75583 3.70115 9.89776 3.28663 9.89776C2.87211 9.89776 0.734367 1.32064 1.0275 1.0275C1.32063 0.734369 9.89776 2.87198 9.89776 3.2865C9.89776 3.70102 5.75583 5.16943 5.46269 5.46269Z" fill="#FDB97E"/>
<path d="M60.1798 58.1025C60.1798 54.5704 63.3939 53.7372 63.3939 50.2051C63.3939 46.673 60.1798 45.8397 60.1798 42.3076C60.1798 38.7755 63.3939 37.9423 63.3939 34.4102C63.3939 30.878 56.9097 30.0448 56.9097 26.5127H46.4453C46.4453 30.0448 50.3135 30.878 50.3135 34.4102C50.3135 37.9423 47.0993 38.7755 47.0993 42.3076C47.0993 45.8397 50.3135 46.673 50.3135 50.2051C50.3135 53.7372 47.0993 54.5704 47.0993 58.1025C47.0993 59.8819 47.9149 60.9763 48.7245 62.0759L63.113 63.3839C62.3035 62.2844 60.1798 59.8819 60.1798 58.1025Z" fill="#82AEE3"/>
<path d="M62.7959 42.3076C62.7959 38.7755 66.01 37.9423 66.01 34.4102C66.01 33.3162 65.6391 32.4812 65.1269 31.7447L56.9098 26.5127C56.9098 30.0448 60.778 30.878 60.778 34.4102C60.778 37.9423 57.5639 38.7755 57.5639 42.3076C57.5639 45.8397 60.778 46.673 60.778 50.2051C60.778 53.7372 57.5639 54.5704 57.5639 58.1025C57.5639 59.8819 58.3794 60.9763 59.189 62.0759H48.7246C49.522 63.1591 50.3136 64.2472 50.3136 66H66.0102C66.0102 62.4679 62.796 61.6347 62.796 58.1025C62.796 54.5704 66.0102 53.7372 66.0102 50.2051C66.01 46.673 62.7959 45.8397 62.7959 42.3076Z" fill="#6C7FD8"/>
<path d="M46.1657 41.4986L44.8577 30.7767L34.2447 26.6426L24.7979 61.8985C42.0702 61.8985 46.1657 49.6464 46.1657 41.4986Z" fill="#82AEE3"/>
<path d="M56.7896 31.7449C56.7896 36.7444 51.0943 41.0741 47.3427 41.0741L46.0347 30.4368L56.7896 31.7449Z" fill="#B2CAEC"/>
<path d="M44.8576 30.7767V41.4986C44.8576 49.6464 39.5852 60.4022 24.7978 61.8985L23.6987 66C41.2298 66 47.3428 51.5817 47.3428 42.8066V31.7448L44.8576 30.7767Z" fill="#6C7FD8"/>
<path d="M42.7373 30.9391C42.7373 37.6965 40.3492 42.2117 33.3638 44.0834L27.3534 42.2467C27.3534 42.2467 25.8775 42.2467 25.2861 42.2467C23.7131 42.2467 22.7765 41.0792 23.1721 39.6008C23.7481 37.4507 26.0776 28.7569 27.2851 24.2506C29.0532 17.6521 33.5607 12.6464 45.4894 12.6464L42.7373 30.9391Z" fill="#B2CAEC"/>
<path d="M60.4178 30.4366L56.9153 25.8595L37.7222 23.4612C37.7222 25.3792 38.1114 27.0621 39.0065 28.4026C40.7975 29.8308 44.0883 30.4367 46.0349 30.4367L60.4178 30.4366Z" fill="#FDB97E"/>
<path d="M62.1416 26.5127L56.9149 25.8596C56.9278 26.53 56.9674 27.056 57.0706 27.5231C57.2523 28.3452 56.6461 29.1286 55.8043 29.1287L44.7267 29.1288C42.7801 29.1288 40.8224 28.8736 39.0063 28.4027C40.4005 30.4904 43.0248 31.7449 47.3428 31.7449L65.1265 31.7448C63.9849 30.1031 62.1416 28.9509 62.1416 26.5127Z" fill="#F99675"/>
<path d="M58.2179 23.8966C58.2179 20.7726 57.5863 16.1804 54.346 13.6683C52.6227 13.0177 50.5604 12.6465 48.1058 12.6465H33.3918C31.3038 12.6465 29.7427 14.579 30.1966 16.6171C30.5745 18.3141 31.2174 19.7719 32.1124 21.0083C35.0078 23.0453 39.4364 23.8966 43.419 23.8966C45.3828 23.8966 58.2179 23.8966 58.2179 23.8966Z" fill="#82AEE3"/>
<path d="M54.3461 13.6683C55.7743 15.6355 56.5215 18.0023 56.7908 20.4105C56.9207 21.5723 56.0087 22.5886 54.8396 22.5886H42.1109C38.1281 22.5886 34.7814 22.084 32.1123 21.0083C34.8714 24.8197 40.0404 26.5127 47.3431 26.5127C49.3068 26.5127 62.1419 26.5127 62.1419 26.5127C62.142 21.3518 60.2167 15.8844 54.3461 13.6683Z" fill="#6C7FD8"/>
<path d="M27.3536 42.2468C32.8911 42.2468 35.0077 44.7402 35.0077 48.6561L26.2642 46.3133L27.3536 42.2468Z" fill="#6C7FD8"/>
<path d="M51.4195 25.5492C51.5013 25.801 50.8546 27.9496 51.286 28.2632C51.7174 28.5766 53.561 27.2976 53.8258 27.2976C54.0905 27.2976 55.9342 28.5767 56.3656 28.2632C56.797 27.9498 56.1503 25.801 56.2321 25.5492C56.3138 25.2974 58.1001 23.9393 57.9353 23.4322C57.7705 22.925 55.527 22.8761 55.3129 22.7204C55.0988 22.5648 54.3591 20.4464 53.8258 20.4464C53.2925 20.4464 52.5528 22.5649 52.3387 22.7204C52.1245 22.8761 49.8811 22.9249 49.7163 23.4322C49.5515 23.9394 51.3378 25.2974 51.4195 25.5492Z" fill="#FFF0AD"/>
<path d="M11.1531 13.2562C11.1116 13.5176 9.55988 15.1384 9.802 15.6137C10.0441 16.0889 12.2675 15.7862 12.5034 15.9063C12.7392 16.0265 13.8012 18.0032 14.328 17.9197C14.8547 17.8363 15.2539 15.6282 15.4411 15.441C15.6283 15.2538 17.8364 14.8546 17.9199 14.3278C18.0033 13.8011 16.0266 12.7391 15.9064 12.5033C15.7862 12.2674 16.0889 10.044 15.6138 9.80188C15.1386 9.55976 13.5178 11.1115 13.2563 11.153C12.9948 11.1944 10.9737 10.2194 10.5966 10.5965C10.2197 10.9736 11.1945 12.9947 11.1531 13.2562Z" fill="#FFF0AD"/>
<path d="M35.5102 32.5784C34.3757 33.7128 32.5363 33.7128 31.4019 32.5784" stroke="black" stroke-width="2" stroke-miterlimit="10" stroke-linecap="round" stroke-linejoin="round"/>
<path d="M56.7896 31.7449C56.7896 36.7444 51.0944 41.0741 47.3428 41.0741" stroke="black" stroke-width="2" stroke-miterlimit="10" stroke-linecap="round" stroke-linejoin="round"/>
<path d="M47.3428 31.7449H64.9712" stroke="black" stroke-width="2" stroke-miterlimit="10" stroke-linecap="round" stroke-linejoin="round"/>
<path d="M37.8447 25.2255C38.426 29.1581 41.1388 31.7449 47.3431 31.7449" stroke="black" stroke-width="2" stroke-miterlimit="10" stroke-linecap="round" stroke-linejoin="round"/>
<path d="M56.6733 26.5127H62.142" stroke="black" stroke-width="2" stroke-miterlimit="10" stroke-linecap="round" stroke-linejoin="round"/>
<path d="M62.142 26.5127C62.142 19.8368 58.9225 12.6465 48.1059 12.6465H33.3918C31.3038 12.6465 29.7427 14.579 30.1966 16.6171C31.7396 23.5458 37.6717 26.5127 47.3433 26.5127C47.8952 26.5127 49.3058 26.5127 51.0487 26.5127" stroke="black" stroke-width="2" stroke-miterlimit="10" stroke-linecap="round" stroke-linejoin="round"/>
<path d="M27.3534 42.2468C32.8908 42.2468 35.0074 44.7402 35.0074 48.6561L26.2639 46.3132L27.3534 42.2468ZM27.3534 42.2468C27.3534 42.2468 26.373 42.2468 25.2861 42.2468C23.7131 42.2468 22.7765 41.0794 23.1721 39.6009C23.5588 38.1576 26.0776 28.757 27.2851 24.2507C27.9193 21.8838 28.906 19.7218 30.4613 17.9224" stroke="black" stroke-width="2" stroke-miterlimit="10" stroke-linecap="round" stroke-linejoin="round"/>
<path d="M28.6615 47.479L23.6987 66C27.5222 66 30.8026 65.3142 33.5949 64.1507" stroke="black" stroke-width="2" stroke-miterlimit="10" stroke-linecap="round" stroke-linejoin="round"/>
<path d="M42.7368 31.1686C42.6829 37.7988 40.2704 42.2331 33.3643 44.0836" stroke="black" stroke-width="2" stroke-miterlimit="10" stroke-linecap="round" stroke-linejoin="round"/>
<path d="M16.9941 13.1159C27.7203 3.95661 44.0394 1.04791 58.4589 4.91161" stroke="black" stroke-width="2" stroke-miterlimit="10" stroke-linecap="round" stroke-linejoin="round"/>
<path d="M11.104 19.579C11.7363 18.6874 12.4062 17.8258 13.1133 16.9976" stroke="black" stroke-width="2" stroke-miterlimit="10" stroke-linecap="round" stroke-linejoin="round"/>
<path d="M4.91161 58.4588C1.71893 46.5438 3.15058 33.3315 8.912 23.0497" stroke="black" stroke-width="2" stroke-miterlimit="10" stroke-linecap="round" stroke-linejoin="round"/>
<path d="M4.91162 58.4589C5.22437 39.389 7.75139 29.6045 18.678 18.678C29.6047 7.75152 39.389 5.22437 58.4589 4.91162" stroke="black" stroke-width="2" stroke-miterlimit="10" stroke-linecap="round" stroke-linejoin="round"/>
<path d="M22.9226 40.4476L3.46826 59.9019" stroke="black" stroke-width="2" stroke-miterlimit="10" stroke-linecap="round" stroke-linejoin="round"/>
<path d="M59.902 3.46857L50.7241 12.6465" stroke="black" stroke-width="2" stroke-miterlimit="10" stroke-linecap="round" stroke-linejoin="round"/>
<path d="M5.46269 5.46269C5.16956 5.75583 3.70115 9.89776 3.28663 9.89776C2.87211 9.89776 0.734367 1.32064 1.0275 1.0275C1.32063 0.734369 9.89776 2.87198 9.89776 3.2865C9.89776 3.70102 5.75583 5.16943 5.46269 5.46269Z" stroke="black" stroke-width="2" stroke-miterlimit="10" stroke-linecap="round" stroke-linejoin="round"/>
<path d="M15.6206 15.6205L23.8052 23.8049" stroke="black" stroke-width="2" stroke-miterlimit="10" stroke-linecap="round" stroke-linejoin="round"/>
<path d="M5.67139 5.67133L10.6036 10.6036" stroke="black" stroke-width="2" stroke-miterlimit="10" stroke-linecap="round" stroke-linejoin="round"/>
<path d="M32.9698 56.057L30.5264 65.1759" stroke="black" stroke-width="2" stroke-miterlimit="10" stroke-linecap="round" stroke-linejoin="round"/>
<path d="M39.7419 53.0395L37.2988 62.1587C44.5434 57.2692 47.3434 48.7454 47.3434 42.8066V31.7448" stroke="black" stroke-width="2" stroke-miterlimit="10" stroke-linecap="round" stroke-linejoin="round"/>
<path d="M66.0098 66C66.0098 62.4679 62.7956 61.6347 62.7956 58.1025C62.7956 54.5704 66.0098 53.7372 66.0098 50.2051C66.0098 46.673 62.7956 45.8397 62.7956 42.3076C62.7956 38.7755 66.0098 37.9423 66.0098 34.4102C66.0098 30.878 62.1416 30.0448 62.1416 26.5127" stroke="black" stroke-width="2" stroke-miterlimit="10" stroke-linecap="round" stroke-linejoin="round"/>
<path d="M58.0656 44.535C57.7643 43.905 57.5635 43.1906 57.5635 42.3076C57.5635 38.7755 60.7776 37.9423 60.7776 34.4102C60.7776 33.3479 60.4277 32.5297 59.9384 31.8087" stroke="black" stroke-width="2" stroke-miterlimit="10" stroke-linecap="round" stroke-linejoin="round"/>
<path d="M60.7776 66C60.7776 62.4679 57.5635 61.6347 57.5635 58.1025C57.5635 54.5704 60.7776 53.7372 60.7776 50.2051C60.7776 49.3296 60.5802 48.62 60.2832 47.994" stroke="black" stroke-width="2" stroke-miterlimit="10" stroke-linecap="round" stroke-linejoin="round"/>
<path d="M55.5457 66C55.5457 62.4679 52.3315 61.6347 52.3315 58.1025C52.3315 54.5704 55.5457 53.7372 55.5457 50.2051C55.5457 46.673 52.3315 45.8397 52.3315 42.3076C52.3315 39.6115 54.2043 38.4879 55.0907 36.5361" stroke="black" stroke-width="2" stroke-miterlimit="10" stroke-linecap="round" stroke-linejoin="round"/>
<path d="M50.3133 66C50.3133 62.4679 47.0991 61.6347 47.0991 58.1025C47.0991 54.5704 50.3133 53.7372 50.3133 50.2051C50.3133 47.2688 48.0921 46.1976 47.3427 43.8906" stroke="black" stroke-width="2" stroke-miterlimit="10" stroke-linecap="round" stroke-linejoin="round"/>
<path d="M51.4195 25.5492C51.5013 25.801 50.8546 27.9496 51.286 28.2632C51.7174 28.5766 53.561 27.2976 53.8258 27.2976C54.0905 27.2976 55.9342 28.5767 56.3656 28.2632C56.797 27.9498 56.1503 25.801 56.2321 25.5492C56.3138 25.2974 58.1001 23.9393 57.9353 23.4322C57.7705 22.925 55.527 22.8761 55.3129 22.7204C55.0988 22.5648 54.3591 20.4464 53.8258 20.4464C53.2925 20.4464 52.5528 22.5649 52.3387 22.7204C52.1245 22.8761 49.8811 22.9249 49.7163 23.4322C49.5515 23.9393 51.3378 25.2974 51.4195 25.5492Z" stroke="black" stroke-width="2" stroke-miterlimit="10" stroke-linecap="round" stroke-linejoin="round"/>
<path d="M11.1531 13.2562C11.1116 13.5176 9.55988 15.1384 9.802 15.6137C10.0441 16.0889 12.2675 15.7862 12.5034 15.9063C12.7392 16.0265 13.8012 18.0032 14.328 17.9197C14.8547 17.8363 15.2539 15.6282 15.4411 15.441C15.6283 15.2538 17.8364 14.8546 17.9199 14.3278C18.0033 13.8011 16.0266 12.7391 15.9064 12.5033C15.7862 12.2674 16.0889 10.044 15.6138 9.80188C15.1386 9.55976 13.5178 11.1115 13.2563 11.153C12.9948 11.1944 10.9737 10.2194 10.5966 10.5965C10.2195 10.9736 11.1945 12.9947 11.1531 13.2562Z" stroke="black" stroke-width="2" stroke-miterlimit="10" stroke-linecap="round" stroke-linejoin="round"/>
<path d="M30.0859 28.9666L34.2449 27.2966" stroke="black" stroke-width="2" stroke-miterlimit="10" stroke-linecap="round" stroke-linejoin="round"/>
</svg>
