<svg width="26" height="26" viewBox="0 0 26 26" fill="none" xmlns="http://www.w3.org/2000/svg">
<path d="M24.8802 15.8492L22.4904 13.9804C22.5207 13.6923 22.5467 13.3554 22.5467 12.9989C22.5467 12.6425 22.5218 12.3056 22.4904 12.0174L24.8824 10.1476C25.3266 9.79662 25.4479 9.17368 25.1651 8.6548L22.68 4.355C22.4145 3.86968 21.8328 3.6205 21.2424 3.83825L18.4225 4.97032C17.8819 4.58032 17.3153 4.251 16.7292 3.98775L16.3002 0.996684C16.2298 0.429 15.7358 0 15.1519 0H10.1686C9.58464 0 9.09176 0.429 9.02239 0.988L8.59233 3.98993C8.02464 4.24562 7.46676 4.57062 6.90233 4.9725L4.07483 3.83718C3.54503 3.63243 2.91128 3.86207 2.64803 4.34525L0.159643 8.65043C-0.133924 9.14662 -0.0126074 9.79118 0.441326 10.1509L2.83114 12.0196C2.79321 12.3847 2.77483 12.7021 2.77483 13.0001C2.77483 13.298 2.79326 13.6154 2.83114 13.9816L0.439143 15.8514C-0.00504095 16.2034 -0.125291 16.8264 0.157459 17.3442L2.64264 21.6439C2.90808 22.1282 3.48439 22.3795 4.08021 22.1607L6.90014 21.0286C7.43964 21.4176 8.00621 21.7469 8.59233 22.0112L9.02133 25.0012C9.09171 25.571 9.58464 26 10.1696 26H15.153C15.7369 26 16.2309 25.571 16.3002 25.012L16.7303 22.0112C17.298 21.7544 17.8548 21.4305 18.4203 21.0275L21.2478 22.1628C21.3843 22.2159 21.5262 22.243 21.6725 22.243C22.0928 22.243 22.4795 22.0133 22.6745 21.6558L25.1705 17.3333C25.4479 16.8263 25.3265 16.2034 24.8802 15.8492ZM12.6602 17.3333C10.2704 17.3333 8.32689 15.3898 8.32689 13C8.32689 10.6102 10.2704 8.66668 12.6602 8.66668C15.05 8.66668 16.9935 10.6102 16.9935 13C16.9935 15.3898 15.05 17.3333 12.6602 17.3333Z" fill="#FCFCFC"/>
</svg>
