<svg width="65" height="57" viewBox="0 0 65 57" fill="none" xmlns="http://www.w3.org/2000/svg">
<path d="M56.4156 24.2237C56.4156 24.2237 74.4357 11.8164 58.259 0C58.812 2.11041 59.0531 3.97032 59.0743 5.62934C60.6483 6.26034 62.3333 7.39708 62.4727 9.4106C61.3147 8.0328 60.0906 7.21038 59.0223 6.71645C58.968 7.77048 58.8144 8.73706 58.5757 9.61384C59.9322 10.2992 61.2084 11.3981 61.3076 13.147C60.2962 11.9157 59.2374 11.1429 58.2637 10.6277C57.9541 11.4643 57.5618 12.2016 57.1223 12.8728C58.1148 13.7189 58.8853 14.858 58.7506 16.3327C58.0558 15.1817 57.2806 14.3546 56.5267 13.7236C55.9643 14.4184 55.3403 15.0045 54.6857 15.5173C55.4609 16.6966 55.9454 18.1358 55.2884 19.6082C54.967 18.1358 54.4234 17.0156 53.8373 16.1294C52.8849 16.7628 51.9112 17.2354 50.9919 17.5852C51.448 19.0859 51.5567 20.8513 50.2924 22.1582C50.5358 20.4448 50.3467 19.0386 50.023 17.9302C48.2009 18.4998 46.8207 18.6109 46.8207 18.6109C46.8207 18.6109 41.0638 15.8482 32.5063 15.8482C23.9488 15.8482 18.1872 18.6109 18.1872 18.6109C18.1872 18.6109 16.8023 18.4998 14.9802 17.9279C14.654 19.0363 14.4697 20.4424 14.7084 22.1558C13.444 20.8489 13.5504 19.0835 14.0112 17.5828C13.0919 17.2331 12.1206 16.7581 11.1635 16.1271C10.5774 17.0133 10.0338 18.1335 9.71714 19.6058C9.06015 18.1335 9.54462 16.6942 10.3198 15.515C9.66751 15.0045 9.04124 14.4184 8.47878 13.7236C7.72017 14.3522 6.94501 15.177 6.25257 16.3303C6.12022 14.8556 6.89302 13.7165 7.8856 12.8681C7.4413 12.2016 7.04899 11.4619 6.7394 10.6277C5.76573 11.1405 4.70698 11.9157 3.69549 13.147C3.79475 11.3981 5.07093 10.2992 6.42981 9.61384C6.18876 8.73706 6.03751 7.77284 5.98079 6.71645C4.90786 7.20802 3.68604 8.0328 2.52803 9.4106C2.6651 7.39472 4.35249 6.26034 5.92643 5.62934C5.94534 3.97032 6.18403 2.11041 6.7394 0C-9.43492 11.8164 8.58513 24.2237 8.58513 24.2237C8.58513 24.2237 0.977716 24.0015 2.82344 27.0312C4.66917 30.0633 9.9133 32.7173 12.2766 32.8662C14.6399 33.0127 17.6672 30.8692 17.6672 30.8692C17.6672 30.8692 18.4802 42.0948 23.7243 45.1955C22.3205 45.4909 21.8786 46.0817 21.9141 47.1901C21.9495 48.2984 22.4718 50.3569 22.9492 50.4018C23.8732 48.6293 27.8979 52.0277 25.2392 53.2826C26.9219 56.0618 30.5448 56.551 32.114 56.6267L32.1187 56.6432C32.1187 56.6432 32.2771 56.6479 32.5016 56.6408C32.7237 56.6479 32.8844 56.6432 32.8844 56.6432L32.8891 56.6267C34.4584 56.551 38.0789 56.0618 39.7663 53.2826C37.1076 52.0277 41.1276 48.6293 42.0563 50.4018C42.5313 50.3521 43.0536 48.2961 43.0914 47.1901C43.1316 46.084 42.685 45.4909 41.2812 45.1955C46.5253 42.0948 47.3359 30.8692 47.3359 30.8692C47.3359 30.8692 50.3633 33.008 52.7266 32.8662C55.0898 32.7197 60.334 30.0586 62.1797 27.0312C64.0254 24.0039 56.4156 24.2237 56.4156 24.2237ZM22.2473 38.6562C20.5859 39.4314 18.8489 35.8179 18.6291 33.7123C18.4093 31.6018 19.4421 31.2757 19.884 30.796C20.3259 30.3162 23.9087 37.8811 22.2473 38.6562ZM46.3717 33.7123C46.1472 35.8227 44.4149 39.4361 42.7535 38.661C41.0945 37.8882 44.6725 30.3209 45.1168 30.8007C45.5564 31.2757 46.5915 31.6089 46.3717 33.7123Z" fill="black"/>
</svg>
