<svg width="67" height="67" viewBox="0 0 67 67" fill="none" xmlns="http://www.w3.org/2000/svg">
<path d="M15.976 29.441C15.976 29.441 14.3198 28.4847 13.4288 27.9703C12.1392 27.2258 11.9241 25.8256 12.948 24.8007C19.0384 18.7104 14.6985 14.5453 19.1958 10.048H38.0025V36.3603L32.935 35.2014C28.9981 39.1383 23.3874 40.3571 20.8339 40.3571C18.5007 40.3571 17.1867 38.4476 18.5613 36.2651C18.5613 36.2651 16.5036 35.2094 17.8953 32.6103C16.0754 32.6103 15.2464 31.5661 15.2464 31.5661L15.976 29.441Z" fill="#B2CAEC"/>
<path d="M34.9631 15.6962L31.4319 3.61584H28.4873L28.8008 15.4281L34.9631 15.6962Z" fill="#C1E9AF"/>
<path d="M31.4321 3.61584H38.0029V15.6962H34.9633C31.8831 10.048 31.4321 3.61584 31.4321 3.61584Z" fill="#ADE194"/>
<path d="M54.1447 6.96077C51.7114 3.3821 47.3809 1.00012 42.4428 1.00012C39.2831 1.00012 36.3723 1.97591 34.0478 3.61582C34.5136 8.2027 35.9277 12.3624 38.0028 15.6961C32.9985 13.8918 29.2527 9.30626 28.4873 3.61582H20.957C17.3896 3.61582 15.1005 7.42479 16.7919 10.5657C19.4468 13.3912 28.8009 15.4279 28.8009 15.4279C29.7502 21.5575 35.4957 26.2715 42.443 26.2715C45.5292 26.2715 48.3785 25.3411 50.6755 23.7697C50.6755 23.7697 57.7571 14.6501 54.1447 6.96077Z" fill="#82AEE3"/>
<path d="M28.4497 12.3742C27.8763 11.9243 21.7891 13.078 16.792 10.5657C18.2914 13.3503 21.586 15.4279 28.801 15.4279C28.4763 13.3317 28.9195 12.7428 28.4497 12.3742Z" fill="#6C7FD8"/>
<path d="M54.1448 6.96075C56.2236 16.5282 47.8149 23.634 38.0029 15.6961C41.082 20.6425 45.6171 23.7697 50.6754 23.7697C54.0429 21.466 56.2236 17.7845 56.2236 13.6357C56.2236 11.1851 55.4618 8.89781 54.1448 6.96075Z" fill="#6C7FD8"/>
<path d="M58.8922 53.4652C58.8922 42.1432 45.444 44.0248 45.444 30.1401C45.444 28.6624 44.1361 25.7538 44.1361 23.3879L34.4033 22.8193C34.4033 27.8538 32.2224 30.5593 28.6623 32.6101C25.4628 34.4533 23.664 36.3866 23.664 40.079C23.664 41.074 23.8831 42.0174 24.2728 42.866C21.2407 44.1358 19.1104 47.1306 19.1104 50.6235C19.1104 52.2128 19.5517 53.6988 20.318 54.9665C24.1491 58.4907 28.6903 56.7187 28.8473 58.9252C28.9282 60.063 29.2599 61.1313 29.7855 62.0766C35.0436 62.0766 44.0694 63.3844 47.9234 63.3844C51.5293 63.3844 55.8036 61.257 58.1761 59.9321C57.7803 59.553 57.3481 59.2114 56.8843 58.9146C58.1353 57.4469 58.8922 55.5449 58.8922 53.4652Z" fill="#82AEE3"/>
<path d="M56.8684 59.9321C54.4958 61.2568 51.5294 62.0766 47.9235 62.0766C44.0696 62.0766 35.0437 62.0766 29.7856 62.0766C31.0866 64.4163 33.5817 66.0001 36.4489 66.0001C39.5566 66.0001 51.7414 66.0001 59.4611 66.0001C61.4342 62.9662 59.7089 59.9321 56.8684 59.9321Z" fill="#6C7FD8"/>
<path d="M28.562 56.0453C27.9675 55.6459 24.5825 56.9372 20.3179 54.9665C21.7904 57.4024 24.4636 59.0309 27.5176 59.0309C27.9701 59.0309 28.414 58.994 28.8473 58.9252C28.6902 56.7187 28.963 56.3146 28.562 56.0453Z" fill="#6C7FD8"/>
<path d="M57.5844 53.4652C57.5844 55.5449 56.8276 57.4469 55.5765 58.9147C56.0404 59.2115 56.4725 59.553 56.8684 59.9322C60.6638 57.813 63.877 55.6776 63.877 50.9815C62.0518 42.3446 50.6755 42.911 50.6755 30.1403V23.7698L44.1362 20.772C44.1362 23.1379 44.1362 28.6623 44.1362 30.14C44.1362 44.0246 57.5844 42.143 57.5844 53.4652Z" fill="#6C7FD8"/>
<path d="M62.1155 58.9147C63.3666 57.4469 64.1234 55.5449 64.1234 53.4652C64.1234 52.557 64.0359 51.7346 63.8768 50.9813C62.938 54.4006 60.6635 57.8129 56.8682 59.9321C58.465 61.4619 59.4607 63.6139 59.4607 66.0001C63.2753 66.0001 65.9999 66.0001 65.9999 66.0001C65.9999 63.0225 64.4505 60.4084 62.1155 58.9147Z" fill="#5766CC"/>
<path d="M50.1577 37.6264L51.7632 33.037C53.6612 31.9437 55.2416 31.9781 56.6123 32.1187C56.4287 33.8093 56.2732 36.1483 54.4801 37.1812C53.1287 37.9596 50.1577 37.6264 50.1577 37.6264Z" fill="#ADE194"/>
<path d="M53.64 36.2953C55.433 35.2623 55.8557 33.6232 56.6122 32.1187C57.941 32.2548 59.0728 32.4908 60.1042 31.8967C58.0089 33.1037 58.6709 36.3868 54.9332 38.5399L50.1577 37.6264C50.1575 37.6264 52.2886 37.0737 53.64 36.2953Z" fill="#6ED5A1"/>
<path d="M28.9197 42.5317L35.0321 39.0107L37.2596 38.951C38.5684 36.9735 40.2517 36.0039 41.1443 35.4896L47.2565 31.9686C47.2565 31.9686 53.4627 42.8671 53.5965 42.9743L30.9674 53.0203C30.8097 52.8999 30.649 52.7689 30.4841 52.6237C28.4335 50.8191 27.9675 50.4089 27.9675 50.4089L28.1273 48.7559L27.4345 47.7265C27.3969 47.537 27.357 47.3364 27.3142 47.1208C26.7818 44.4418 27.67 43.2516 28.9197 42.5317Z" fill="#ADE194"/>
<path d="M53.5962 42.9745L47.484 46.4954C46.5913 47.0096 44.908 47.9793 42.5408 48.1194L41.3716 50.0164L35.2594 53.5374C34.1102 54.1994 32.7699 54.3961 30.9673 53.0204L52.2794 40.7435L53.5962 42.9745Z" fill="#6ED5A1"/>
<path d="M27.4346 47.7266C27.865 49.8928 27.9676 50.4091 27.9676 50.4091L50.4072 37.4828L49.1208 35.2343L27.4346 47.7266Z" fill="#6ED5A1"/>
<path d="M44.0454 41.1473C46.8014 39.5598 46.4775 38.4353 45.7515 37.175C45.7265 36.9783 45.6938 36.7734 45.6511 36.558C45.1188 33.8787 46.0069 32.6886 47.2566 31.9686L53.3689 28.4476C52.1191 29.1676 51.231 30.3577 51.7634 33.037C51.8062 33.2525 51.8389 33.4573 51.8639 33.654L50.1578 37.6264C51.4075 36.9064 52.8827 36.7352 54.9332 38.5399C55.0982 38.6851 55.2589 38.8161 55.4166 38.9364L49.3043 42.4574C49.1467 42.3371 48.9858 42.2061 48.8209 42.0609C46.7703 40.2563 45.2951 40.4275 44.0454 41.1473Z" fill="#C1E9AF"/>
<path d="M36.5963 49.1029C36.7612 49.248 36.9221 49.379 37.0797 49.4994L43.192 45.9784C43.0343 45.8581 42.8735 45.7271 42.7086 45.5819C40.6581 43.7772 39.1828 43.9485 37.9332 44.6684L39.6392 40.696C39.6143 40.4993 39.5816 40.2944 39.5388 40.079C39.0065 37.3997 39.8947 36.2096 41.1443 35.4896L35.032 39.0106C33.7822 39.7306 32.894 40.9207 33.4264 43.6C33.4692 43.8155 33.5019 44.0203 33.5269 44.217C34.2529 45.4773 34.5768 46.6017 31.8208 48.1893C33.0704 47.4695 34.5457 47.2983 36.5963 49.1029Z" fill="#C1E9AF"/>
<path d="M45.7511 37.175L51.8634 33.6541C52.1491 35.9035 51.3066 36.9643 50.1573 37.6264L44.0449 41.1474C45.1944 40.4853 46.0369 39.4247 45.7511 37.175Z" fill="#ADE194"/>
<path d="M31.8208 48.1895L37.9332 44.6685C39.0824 44.0065 39.9249 42.9458 39.6392 40.6962L33.5269 44.2172C33.8125 46.4666 32.97 47.5274 31.8208 48.1895Z" fill="#ADE194"/>
<path d="M43.1919 45.9785L37.0796 49.4994C38.8822 50.8752 40.2225 50.6785 41.3717 50.0164L47.484 46.4954C46.3348 47.1575 44.9947 47.3542 43.1919 45.9785Z" fill="#ADE194"/>
<path d="M55.4166 38.9363L49.3042 42.4573C51.1068 43.8331 52.4471 43.6364 53.5963 42.9743L59.7086 39.4533C58.5596 40.1155 57.2193 40.3121 55.4166 38.9363Z" fill="#ADE194"/>
<path d="M12.5612 57.5969C12.3194 57.4893 11.1555 55.5712 10.6339 55.682C10.1124 55.7928 9.82936 58.0185 9.65228 58.2152C9.47519 58.4119 7.29135 58.926 7.23551 59.4563C7.17966 59.9866 9.20905 60.9436 9.3414 61.1727C9.47376 61.4019 9.28791 63.6378 9.77495 63.8547C10.2621 64.0716 11.7992 62.4374 12.0582 62.3824C12.3171 62.3273 14.386 63.195 14.7428 62.7988C15.0996 62.4025 14.0204 60.4356 14.0481 60.1723C14.0758 59.9091 15.5403 58.2095 15.2737 57.7477C15.0073 57.2861 12.803 57.7046 12.5612 57.5969Z" fill="#FFF0AD"/>
<path d="M37.4391 15.6174C37.3315 15.8592 35.4134 17.0231 35.5241 17.5446C35.6349 18.0662 37.8606 18.3492 38.0573 18.5263C38.254 18.7034 38.7681 20.8872 39.2985 20.9431C39.8288 20.9988 40.7857 18.9695 41.0149 18.8372C41.244 18.7048 43.4799 18.8907 43.6969 18.4036C43.9139 17.9166 42.2796 16.3794 42.2245 16.1204C42.1695 15.8615 43.0372 13.7926 42.6409 13.4358C42.2447 13.079 40.2778 14.1582 40.0145 14.1305C39.7512 14.1028 38.0517 12.6383 37.5899 12.9049C37.1281 13.1715 37.5467 15.3756 37.4391 15.6174Z" fill="#FFF0AD"/>
<path d="M37.4391 15.6174C37.3315 15.8592 35.4134 17.0231 35.5241 17.5446C35.6349 18.0662 37.8606 18.3492 38.0573 18.5263C38.254 18.7034 38.7681 20.8872 39.2985 20.9431C39.8288 20.9988 40.7857 18.9695 41.0149 18.8372C41.244 18.7048 43.4799 18.8907 43.6969 18.4036C43.9139 17.9166 42.2796 16.3794 42.2245 16.1204C42.1695 15.8615 43.0372 13.7926 42.6409 13.4358C42.2447 13.079 40.2778 14.1582 40.0145 14.1305C39.7512 14.1028 38.0517 12.6383 37.5899 12.9049C37.1281 13.1715 37.5467 15.3756 37.4391 15.6174Z" stroke="black" stroke-width="2" stroke-miterlimit="10" stroke-linecap="round" stroke-linejoin="round"/>
<path d="M12.5612 57.5969C12.3194 57.4893 11.1555 55.5712 10.6339 55.682C10.1124 55.7928 9.82936 58.0185 9.65228 58.2152C9.47519 58.4119 7.29135 58.926 7.23551 59.4563C7.17966 59.9866 9.20905 60.9436 9.3414 61.1727C9.47376 61.4019 9.28791 63.6378 9.77495 63.8547C10.2621 64.0716 11.7992 62.4374 12.0582 62.3824C12.3171 62.3273 14.386 63.195 14.7428 62.7988C15.0996 62.4025 14.0204 60.4356 14.0481 60.1723C14.0758 59.9091 15.5403 58.2095 15.2737 57.7477C15.0073 57.2861 12.803 57.7046 12.5612 57.5969Z" stroke="black" stroke-width="2" stroke-miterlimit="10" stroke-linecap="round" stroke-linejoin="round"/>
<path d="M17.8957 32.6102C16.504 35.2094 18.5617 36.2649 18.5617 36.2649C17.1871 38.4475 18.5011 40.3569 20.8343 40.3569C21.5033 40.3569 22.382 40.2732 23.3855 40.079" stroke="black" stroke-width="2" stroke-miterlimit="10" stroke-linecap="round" stroke-linejoin="round"/>
<path d="M43.8633 21.7579C45.9452 23.0512 48.2502 23.7697 50.6752 23.7697" stroke="black" stroke-width="2" stroke-miterlimit="10" stroke-linecap="round" stroke-linejoin="round"/>
<path d="M34.0474 3.61584C34.4404 7.48603 35.5081 11.0525 37.0787 14.0751" stroke="black" stroke-width="2" stroke-miterlimit="10" stroke-linecap="round" stroke-linejoin="round"/>
<path d="M21.0297 31.9061C20.4044 32.2671 19.1484 32.6101 17.8954 32.6101C16.0756 32.6101 15.2465 31.566 15.2465 31.566L15.976 29.4411C15.976 29.4411 14.3198 28.4848 13.4288 27.9704C12.1392 27.2259 11.9241 25.8257 12.948 24.8009C18.0784 19.6704 15.8075 15.9062 17.6524 12.1587" stroke="black" stroke-width="2" stroke-miterlimit="10" stroke-linecap="round" stroke-linejoin="round"/>
<path d="M50.6753 29.793V23.7697C54.0428 21.466 56.2235 17.7845 56.2235 13.6358C56.2235 6.65722 50.0537 1 42.4428 1C39.2831 1 36.3723 1.97578 34.0477 3.61569H28.4873C29.2048 8.95027 32.5414 13.3146 37.0788 15.326" stroke="black" stroke-width="2" stroke-miterlimit="10" stroke-linecap="round" stroke-linejoin="round"/>
<path d="M20.3174 54.9662C21.7898 57.4023 24.4635 59.0308 27.5177 59.0308C27.9703 59.0308 28.4141 58.994 28.8474 58.9252C29.1287 62.8792 32.4232 66.0001 36.4489 66.0001C39.1938 66.0001 47.9612 66.0001 55.5376 66.0001" stroke="black" stroke-width="2" stroke-miterlimit="10" stroke-linecap="round" stroke-linejoin="round"/>
<path d="M24.5638 3.61584H20.957C17.3896 3.61584 15.1005 7.42482 16.7919 10.5657C18.2913 13.3503 21.5859 15.4279 28.8009 15.4279C29.3381 18.8959 31.4113 21.91 34.368 23.8744C34.0793 28.2402 31.965 30.7076 28.6623 32.6102C25.4628 34.4533 23.664 36.3866 23.664 40.079C23.664 41.074 23.883 42.0174 24.2728 42.866C21.2407 44.1358 19.1103 47.1307 19.1103 50.6235C19.1103 50.7975 19.1155 50.9701 19.126 51.1414" stroke="black" stroke-width="2" stroke-miterlimit="10" stroke-linecap="round" stroke-linejoin="round"/>
<path d="M20.4976 16.2062C22.4792 15.3126 24.5188 15.1304 24.5188 15.1304" stroke="black" stroke-width="2" stroke-miterlimit="10" stroke-linecap="round" stroke-linejoin="round"/>
<path d="M24.5188 22.644C23.3845 23.7783 21.5454 23.7783 20.4111 22.644" stroke="black" stroke-width="2" stroke-miterlimit="10" stroke-linecap="round" stroke-linejoin="round"/>
<path d="M44.4315 33.4657C44.2407 32.4665 44.1362 31.3647 44.1362 30.1401" stroke="black" stroke-width="2" stroke-miterlimit="10" stroke-linecap="round" stroke-linejoin="round"/>
<path d="M52.3267 43.9319C55.1347 46.206 57.5842 48.6331 57.5842 53.4651C57.5842 55.5448 56.8274 57.4468 55.5763 58.9146C57.9113 60.4083 59.4607 63.0225 59.4607 66C64.7006 66 65.9999 66 65.9999 66C65.9999 63.0225 64.4505 60.4083 62.1155 58.9146C63.3666 57.4468 64.1234 55.5448 64.1234 53.4651C64.1234 47.126 59.9077 44.9259 56.197 41.7803" stroke="black" stroke-width="2" stroke-miterlimit="10" stroke-linecap="round" stroke-linejoin="round"/>
<path d="M31.5605 40.9388C33.5423 34.8141 38.3725 34.7221 38.3725 25.7111" stroke="black" stroke-width="2" stroke-miterlimit="10" stroke-linecap="round" stroke-linejoin="round"/>
<path d="M51.6136 66.0001C51.6136 63.0225 48.1215 58.9147 42.4978 58.9147C37.9069 58.9147 34.4671 57.0621 32.5264 53.9722" stroke="black" stroke-width="2" stroke-miterlimit="10" stroke-linecap="round" stroke-linejoin="round"/>
<path d="M44.0454 41.1474C44.0454 41.1474 49.5785 37.96 50.1578 37.6264C51.4075 36.9064 52.2957 35.7163 51.7633 33.037C51.2309 30.3578 52.1191 29.1677 53.3688 28.4477C54.2458 27.9425 59.721 24.945 59.721 24.945" stroke="black" stroke-width="2" stroke-miterlimit="10" stroke-linecap="round" stroke-linejoin="round"/>
<path d="M66 35.845C66 35.845 60.5858 38.9482 59.7087 39.4535C58.4589 40.1734 56.9838 40.3446 54.9332 38.5399C52.8827 36.7352 51.4074 36.9066 50.1578 37.6264C49.5787 37.96 44.0454 41.1474 44.0454 41.1474" stroke="black" stroke-width="2" stroke-miterlimit="10" stroke-linecap="round" stroke-linejoin="round"/>
<path d="M65.9999 28.5004C64.7501 29.2203 61.7646 30.9402 60.1041 31.8967C58.0088 33.1037 55.5009 30.8839 51.7632 33.037" stroke="black" stroke-width="2" stroke-miterlimit="10" stroke-linecap="round" stroke-linejoin="round"/>
<path d="M54.9331 38.5399C58.6708 36.3868 58.0088 33.1037 60.1041 31.8967" stroke="black" stroke-width="2" stroke-miterlimit="10" stroke-linecap="round" stroke-linejoin="round"/>
<path d="M37.9331 44.6683C37.9331 44.6683 43.4662 41.481 44.0455 41.1473C45.2952 40.4274 46.1834 39.2372 45.651 36.558C45.1187 33.8787 46.0068 32.6886 47.2565 31.9686C48.1335 31.4634 53.3688 28.4476 53.3688 28.4476" stroke="black" stroke-width="2" stroke-miterlimit="10" stroke-linecap="round" stroke-linejoin="round"/>
<path d="M47.2565 31.9686C47.2565 31.9686 42.0214 34.9844 41.1442 35.4896C39.8944 36.2096 39.0062 37.3997 39.5387 40.079C40.071 42.7582 39.1828 43.9484 37.9332 44.6683C37.354 45.002 31.8208 48.1893 31.8208 48.1893" stroke="black" stroke-width="2" stroke-miterlimit="10" stroke-linecap="round" stroke-linejoin="round"/>
<path d="M27.9673 50.4092C27.9673 50.4092 31.2415 48.523 31.8207 48.1893C33.0705 47.4694 33.9587 46.2792 33.4262 43.6C32.8939 40.9207 33.7821 39.7306 35.0318 39.0106C35.9088 38.5054 41.1441 35.4896 41.1441 35.4896" stroke="black" stroke-width="2" stroke-miterlimit="10" stroke-linecap="round" stroke-linejoin="round"/>
<path d="M8.77751 61.5036L1 66.0001" stroke="black" stroke-width="2" stroke-miterlimit="10" stroke-linecap="round" stroke-linejoin="round"/>
<path d="M35.032 39.0106C35.032 39.0106 31.2061 41.2145 29.7445 42.0566C27.6616 43.2564 26.7818 44.4418 27.3141 47.1211C27.8464 49.8004 27.9675 50.4092 27.9675 50.4092L15.2739 57.7479" stroke="black" stroke-width="2" stroke-miterlimit="10" stroke-linecap="round" stroke-linejoin="round"/>
<path d="M59.6028 39.5144C59.6028 39.5144 54.4734 42.4692 53.5964 42.9744C52.3466 43.6944 50.8715 43.8656 48.8209 42.0609C46.7704 40.2562 45.2951 40.4275 44.0455 41.1474C43.4663 41.481 37.9331 44.6684 37.9331 44.6684" stroke="black" stroke-width="2" stroke-miterlimit="10" stroke-linecap="round" stroke-linejoin="round"/>
<path d="M31.8208 48.1893C31.8208 48.1893 37.3539 45.002 37.9332 44.6684C39.1829 43.9484 40.6581 43.7772 42.7086 45.5819C44.7592 47.3864 46.2345 47.2153 47.4841 46.4954C49.1787 45.5192 53.5965 42.9744 53.5965 42.9744" stroke="black" stroke-width="2" stroke-miterlimit="10" stroke-linecap="round" stroke-linejoin="round"/>
<path d="M47.484 46.4954C47.484 46.4954 42.2488 49.5112 41.3717 50.0164C40.1219 50.7364 38.6468 50.9076 36.5962 49.1029C34.5456 47.2982 33.0704 47.4695 31.8207 48.1893C31.2416 48.523 27.9673 50.4092 27.9673 50.4092" stroke="black" stroke-width="2" stroke-miterlimit="10" stroke-linecap="round" stroke-linejoin="round"/>
<path d="M27.9673 50.4092C27.9673 50.4092 28.4333 50.8193 30.4838 52.6239C32.5344 54.4286 34.0012 54.2621 36.084 53.0623C37.5458 52.2203 41.3715 50.0163 41.3715 50.0163" stroke="black" stroke-width="2" stroke-miterlimit="10" stroke-linecap="round" stroke-linejoin="round"/>
</svg>
